<svg width="198" height="116" viewBox="0 0 198 116" fill="none" xmlns="http://www.w3.org/2000/svg">
<g id="Team work-rafiki 1">
<g id="freepik--background-simple--inject-1">
<path id="Vector" d="M66.2301 61.5414C83.2682 66.1704 95.8768 91.1917 115.578 83.9919C132.795 77.6965 120.92 54.7938 141.347 54.0817C153.735 53.6437 178.475 56.681 169.306 32.9024C163.737 18.4636 148.54 5.86568 133.76 1.21179C110.868 -6.00227 116.821 22.5371 100.901 27.7749C93.7439 30.1286 89.3714 25.4391 83.4214 22.4338C74.6691 18.0149 63.0646 13.1474 53.1088 12.9658C37.267 12.6774 23.1985 29.4841 23.9107 45.2866C25.1676 72.8646 50.5272 57.2792 66.2301 61.5414Z" fill="#FFCA40"/>
<path id="Vector_2" opacity="0.9" d="M66.2301 61.5414C83.2682 66.1704 95.8768 91.1917 115.578 83.9919C132.795 77.6965 120.92 54.7938 141.347 54.0817C153.735 53.6437 178.475 56.681 169.306 32.9024C163.737 18.4636 148.54 5.86568 133.76 1.21179C110.868 -6.00227 116.821 22.5371 100.901 27.7749C93.7439 30.1286 89.3714 25.4391 83.4214 22.4338C74.6691 18.0149 63.0646 13.1474 53.1088 12.9658C37.267 12.6774 23.1985 29.4841 23.9107 45.2866C25.1676 72.8646 50.5272 57.2792 66.2301 61.5414Z" fill="#292929"/>
</g>
<g id="freepik--character-3--inject-1">
<path id="Vector_3" d="M141.055 14.4331C138.918 15.601 138.206 19.0621 139.207 20.5682C135.503 21.6792 137.426 28.0458 143.479 28.4019C149.533 28.758 154.14 26.5467 151.167 21.8252C154.108 17.8621 152.755 13.4361 150.177 13.9239C147.411 8.37983 138.145 8.54362 141.055 14.4331Z" fill="#263238"/>
<path id="Vector_4" d="M147.499 28.8291C146.565 28.8262 145.65 28.5702 144.85 28.0885C144.837 28.0839 144.826 28.0765 144.816 28.0668C144.806 28.0572 144.799 28.0455 144.795 28.0327C144.79 28.0199 144.788 28.0063 144.789 27.9927C144.791 27.9792 144.795 27.9661 144.802 27.9544C144.809 27.9427 144.818 27.9326 144.83 27.925C144.841 27.9173 144.854 27.9122 144.867 27.9101C144.88 27.9079 144.894 27.9087 144.907 27.9125C144.92 27.9163 144.932 27.9229 144.943 27.9318C145.974 28.5493 147.193 28.7761 148.378 28.5709C149.563 28.3657 150.634 27.7422 151.398 26.8138C152.37 25.6102 152.823 23.6803 151.124 21.8786C151.116 21.8699 151.109 21.8597 151.105 21.8486C151.101 21.8375 151.099 21.8256 151.099 21.8137C151.1 21.8018 151.102 21.7901 151.107 21.7792C151.112 21.7684 151.119 21.7586 151.128 21.7504C151.136 21.7422 151.146 21.7358 151.158 21.7316C151.169 21.7273 151.181 21.7253 151.192 21.7256C151.204 21.726 151.216 21.7286 151.227 21.7335C151.238 21.7383 151.248 21.7453 151.256 21.7539C153.015 23.6411 152.556 25.6708 151.537 26.9277C151.044 27.5204 150.427 27.9978 149.729 28.3263C149.031 28.6548 148.27 28.8265 147.499 28.8291Z" fill="#263238"/>
<path id="Vector_5" d="M138.537 21.7503C138.519 21.7498 138.501 21.7437 138.486 21.7329C138.472 21.7221 138.461 21.707 138.455 21.6898C137.508 18.9765 138.775 15.3339 141.015 14.3368C141.037 14.3291 141.061 14.3295 141.082 14.338C141.104 14.3465 141.122 14.3625 141.133 14.3831C141.137 14.3939 141.14 14.4055 141.14 14.4172C141.14 14.4289 141.138 14.4406 141.134 14.4515C141.13 14.4624 141.123 14.4724 141.115 14.4808C141.107 14.4893 141.097 14.496 141.086 14.5006C138.921 15.462 137.7 18.9943 138.622 21.6221C138.626 21.6333 138.628 21.6452 138.627 21.6571C138.626 21.6689 138.623 21.6805 138.618 21.6911C138.612 21.7017 138.605 21.7112 138.596 21.7189C138.587 21.7266 138.577 21.7324 138.565 21.7361L138.537 21.7503Z" fill="#263238"/>
<path id="Vector_6" d="M137.957 17.83H137.925C137.903 17.8212 137.886 17.8046 137.876 17.7835C137.866 17.7624 137.864 17.7383 137.872 17.7161C138.513 16.0176 139.723 14.725 141.026 14.3405C141.049 14.3339 141.073 14.3365 141.094 14.3479C141.115 14.3592 141.13 14.3783 141.137 14.401C141.143 14.4237 141.141 14.448 141.129 14.4687C141.118 14.4894 141.099 14.5048 141.076 14.5114C139.826 14.8675 138.662 16.1315 138.039 17.7802C138.031 17.7954 138.02 17.8082 138.005 17.817C137.991 17.8259 137.974 17.8304 137.957 17.83Z" fill="#263238"/>
<path id="Vector_7" d="M142.942 112.546L140.883 112.549L140.538 104.819L144.003 104.904L142.942 112.546Z" fill="#FFB573"/>
<path id="Vector_8" d="M139.363 45.8388C139.363 45.8388 139.181 67.2922 138.729 76.632C138.711 76.9095 138.711 77.1878 138.729 77.4653C139.406 86.8265 140.527 104.819 140.527 104.819L144.013 104.908C144.013 104.908 147.051 90.5403 145.171 77.5258C148.194 62.8057 149.821 49.6701 147.083 45.8352L139.363 45.8388Z" fill="#FFCA40"/>
<path id="Vector_9" opacity="0.2" d="M145.202 54.3596C144.134 57.9417 145.174 69.4572 145.726 74.7698C146.477 70.9313 147.118 67.2388 147.592 63.8347L145.202 54.3596Z" fill="black"/>
<path id="Vector_10" d="M140.652 111.549H143.327C143.383 111.547 143.438 111.566 143.48 111.603C143.522 111.64 143.549 111.692 143.554 111.748L143.825 113.938C143.826 114.006 143.814 114.073 143.789 114.136C143.764 114.199 143.727 114.257 143.68 114.305C143.632 114.353 143.576 114.392 143.513 114.418C143.451 114.444 143.384 114.458 143.316 114.458C142.137 114.458 141.575 114.372 140.09 114.376C139.175 114.376 138.623 114.469 137.359 114.469C136.095 114.469 136.095 113.258 136.625 113.148C139.007 112.653 139.314 112.378 140.143 111.723C140.289 111.61 140.468 111.549 140.652 111.549Z" fill="#263238"/>
<path id="Vector_11" d="M141.532 30.0504C141.4 30.7874 141.251 31.4747 141.09 32.1868C140.93 32.899 140.766 33.6111 140.578 34.3233C140.204 35.7475 139.816 37.1434 139.303 38.5534C139.046 39.2824 138.746 39.9958 138.406 40.6899C138.217 41.0751 137.999 41.4453 137.754 41.7972C137.683 41.8934 137.619 41.986 137.526 42.0928C137.438 42.2062 137.339 42.3111 137.231 42.4061C136.958 42.6641 136.629 42.8555 136.269 42.9652C135.893 43.079 135.493 43.095 135.108 43.0115C134.806 42.9414 134.517 42.821 134.254 42.6554C133.855 42.3999 133.501 42.0798 133.207 41.7082C132.702 41.0798 132.299 40.3756 132.014 39.6216C131.952 39.4613 131.946 39.2844 131.999 39.1205C132.052 38.9567 132.159 38.8161 132.303 38.7224C132.448 38.6287 132.62 38.5876 132.791 38.6061C132.962 38.6246 133.122 38.7016 133.243 38.824L133.285 38.8703C133.727 39.3371 134.203 39.7703 134.71 40.1664C134.907 40.3175 135.127 40.4376 135.361 40.5225C135.447 40.5439 135.507 40.5439 135.514 40.5225C135.521 40.5011 135.465 40.4869 135.415 40.4905C135.365 40.494 135.333 40.5118 135.347 40.4905C135.364 40.4594 135.383 40.4297 135.404 40.4014C135.439 40.3583 135.47 40.3118 135.497 40.2626C135.646 40.0174 135.777 39.7615 135.888 39.497C136.147 38.887 136.376 38.2643 136.572 37.6312C136.978 36.328 137.348 34.9713 137.669 33.6075C137.989 32.2438 138.306 30.8515 138.591 29.4913C138.679 29.1153 138.909 28.7879 139.233 28.578C139.557 28.3681 139.95 28.2921 140.329 28.3659C140.708 28.4396 141.044 28.6575 141.265 28.9736C141.487 29.2898 141.577 29.6796 141.518 30.061L141.532 30.0504Z" fill="#FFB573"/>
<path id="Vector_12" d="M138.295 42.9262C138.295 43.8021 151.947 43.973 151.947 42.8158L144.971 41.0354L138.295 42.9262Z" fill="#263238"/>
<path id="Vector_13" d="M140.802 27.7537C144.401 27.1517 148.079 27.1879 151.666 27.8606C151.876 27.8939 152.077 27.9699 152.257 28.084C152.437 28.1982 152.592 28.3479 152.712 28.5241C152.831 28.7002 152.914 28.8991 152.954 29.1083C152.994 29.3175 152.99 29.5327 152.944 29.7406C151.014 38.3826 151.124 41.2881 151.31 45.8388H139.367C138.769 38.2473 138.452 33.9138 138.373 31.4534C138.309 29.5768 138.954 28.0279 140.802 27.7537Z" fill="#FFB573"/>
<path id="Vector_14" opacity="0.2" d="M151.63 30.2642C151.555 31.4703 151.715 32.6796 152.1 33.8249C152.254 33.0024 152.432 32.1193 152.635 31.1543L151.63 30.2642Z" fill="black"/>
<path id="Vector_15" d="M147.745 21.4441C147.389 23.1711 147.065 26.3437 148.276 27.4974C148.276 27.4974 147.802 29.2528 144.59 29.2528C141.054 29.2528 142.899 27.4974 142.899 27.4974C144.829 27.0345 144.779 25.603 144.444 24.2606L147.745 21.4441Z" fill="#FFB573"/>
<path id="Vector_16" opacity="0.2" d="M146.399 22.5942L144.444 24.2713C144.527 24.5841 144.583 24.9033 144.612 25.2256C145.349 25.1188 146.36 24.3105 146.438 23.5378C146.482 23.2235 146.469 22.9038 146.399 22.5942Z" fill="black"/>
<path id="Vector_17" d="M149.612 18.4461C148.949 21.2626 148.732 22.4697 147.044 23.684C144.509 25.5142 141.19 24.0899 140.991 21.1309C140.813 18.471 141.92 14.3085 144.908 13.6533C145.564 13.5054 146.247 13.5275 146.892 13.7176C147.537 13.9077 148.123 14.2595 148.595 14.7395C149.066 15.2196 149.406 15.8121 149.584 16.4607C149.762 17.1094 149.772 17.7928 149.612 18.4461Z" fill="#FFB573"/>
<path id="Vector_18" d="M148.536 14.2087C145.552 14.5399 146.46 20.1018 148.703 20.6394C151.331 19.354 152.951 14.4722 148.536 14.2087Z" fill="#263238"/>
<path id="Vector_19" d="M163.142 107.454L161.08 108.081L158.071 101.778L161.244 100.913L163.142 107.454Z" fill="#FFB573"/>
<path id="Vector_20" d="M160.486 107.45L163.135 106.425C163.181 106.407 163.233 106.406 163.279 106.422C163.326 106.439 163.366 106.471 163.391 106.514L164.577 108.515C164.606 108.565 164.623 108.62 164.628 108.677C164.633 108.735 164.626 108.792 164.606 108.846C164.587 108.9 164.556 108.95 164.516 108.991C164.476 109.032 164.428 109.064 164.374 109.085C163.445 109.441 162.996 109.622 161.832 110.074C161.12 110.352 160.002 111.278 159.012 111.659C158.022 112.04 157.587 111.136 157.943 110.822C158.908 109.98 159.668 108.929 160.165 107.749C160.196 107.68 160.239 107.618 160.295 107.567C160.35 107.515 160.415 107.476 160.486 107.45Z" fill="#263238"/>
<path id="Vector_21" d="M142.643 45.8387C142.643 45.8387 147.033 68.2963 148.696 77.1732C150.416 86.4312 158.078 101.764 158.078 101.764L161.258 100.895C161.258 100.895 156.903 84.4941 154.874 76.3649C154.475 61.6448 154.945 49.6594 151.313 45.8245L142.643 45.8387Z" fill="#FFCA40"/>
<path id="Vector_22" d="M144.939 18.4284C144.9 18.66 144.747 18.8275 144.583 18.7847C144.419 18.742 144.341 18.5496 144.38 18.318C144.419 18.0864 144.576 17.9189 144.736 17.9439C144.897 17.9688 144.982 18.1968 144.939 18.4284Z" fill="#263238"/>
<path id="Vector_23" d="M142.323 17.9833C142.284 18.2149 142.127 18.3824 141.967 18.3396C141.806 18.2968 141.724 18.108 141.764 17.8729C141.803 17.6377 141.96 17.4738 142.12 17.5166C142.28 17.5593 142.362 17.7517 142.323 17.9833Z" fill="#263238"/>
<path id="Vector_24" d="M142.183 17.5417L141.652 17.2852C141.652 17.2852 141.866 17.7697 142.183 17.5417Z" fill="#263238"/>
<path id="Vector_25" d="M143.056 18.5386C142.762 19.031 142.402 19.4814 141.987 19.8774C142.091 19.9813 142.216 20.0614 142.354 20.1124C142.491 20.1635 142.639 20.1841 142.785 20.173L143.056 18.5386Z" fill="#ED893E"/>
<path id="Vector_26" d="M143.889 21.2945C143.769 21.2946 143.65 21.2839 143.533 21.2625C143.524 21.2612 143.515 21.2581 143.507 21.2534C143.5 21.2488 143.493 21.2426 143.488 21.2353C143.482 21.228 143.478 21.2197 143.476 21.2109C143.474 21.2021 143.474 21.193 143.476 21.1841C143.479 21.1665 143.489 21.1508 143.504 21.1403C143.518 21.1297 143.536 21.125 143.554 21.1271C143.841 21.1819 144.138 21.1686 144.419 21.0882C144.7 21.0078 144.959 20.8626 145.174 20.6642C145.18 20.6573 145.188 20.6518 145.197 20.6481C145.205 20.6443 145.215 20.6423 145.224 20.6423C145.233 20.6423 145.243 20.6443 145.251 20.6481C145.26 20.6518 145.267 20.6573 145.274 20.6642C145.286 20.6774 145.292 20.6945 145.292 20.7123C145.292 20.7301 145.286 20.7473 145.274 20.7604C144.901 21.1146 144.403 21.3067 143.889 21.2945Z" fill="#263238"/>
<path id="Vector_27" d="M150.017 20.8745C149.733 21.3566 149.272 21.7082 148.732 21.8537C148.02 22.0353 147.664 21.3908 147.884 20.7214C148.073 20.1197 148.678 19.2971 149.394 19.4075C149.55 19.4359 149.695 19.5025 149.819 19.6012C149.942 19.6999 150.039 19.8277 150.101 19.9732C150.163 20.1186 150.187 20.2771 150.173 20.4344C150.158 20.5917 150.105 20.743 150.017 20.8745Z" fill="#FFB573"/>
<path id="Vector_28" d="M146.076 18.0729C146.047 18.0727 146.019 18.0632 145.996 18.0459C145.973 18.0286 145.956 18.0043 145.948 17.9767C145.759 17.3675 144.979 17.1038 144.972 17.1038C144.954 17.0986 144.938 17.0898 144.924 17.0781C144.91 17.0664 144.898 17.0519 144.89 17.0356C144.881 17.0193 144.877 17.0014 144.875 16.9831C144.874 16.9649 144.877 16.9465 144.883 16.9292C144.888 16.9117 144.897 16.8954 144.908 16.8813C144.92 16.8672 144.935 16.8556 144.951 16.8473C144.967 16.839 144.985 16.8341 145.003 16.8328C145.022 16.8316 145.04 16.8341 145.057 16.8402C145.093 16.8402 145.98 17.1501 146.212 17.909C146.217 17.9266 146.219 17.945 146.217 17.9634C146.216 17.9817 146.21 17.9994 146.202 18.0157C146.193 18.0319 146.181 18.0463 146.167 18.0579C146.153 18.0696 146.137 18.0783 146.119 18.0836L146.076 18.0729Z" fill="#263238"/>
<path id="Vector_29" d="M141.739 16.6374C141.715 16.6371 141.692 16.6307 141.671 16.6189C141.65 16.607 141.633 16.5901 141.621 16.5697C141.603 16.5376 141.599 16.4997 141.609 16.4643C141.619 16.4289 141.642 16.3989 141.675 16.3809C141.862 16.2674 142.074 16.2004 142.293 16.1855C142.512 16.1707 142.731 16.2083 142.932 16.2954C142.965 16.3121 142.989 16.341 143 16.3756C143.012 16.4103 143.009 16.448 142.993 16.4806C142.976 16.513 142.947 16.5375 142.913 16.5489C142.878 16.5602 142.84 16.5575 142.808 16.5412C142.647 16.4754 142.473 16.4482 142.299 16.4618C142.126 16.4754 141.959 16.5295 141.81 16.6196C141.788 16.6326 141.764 16.6388 141.739 16.6374Z" fill="#263238"/>
<path id="Vector_30" d="M152.641 28.3556C153.656 29.6838 154.578 31.0262 155.454 32.4434C155.888 33.1555 156.315 33.8677 156.707 34.6261C157.133 35.412 157.484 36.2357 157.758 37.0866C157.797 37.2005 157.825 37.3323 157.857 37.4427L157.882 37.5459L157.914 37.6955C157.929 37.7887 157.938 37.8826 157.943 37.9768C157.959 38.2858 157.936 38.5957 157.875 38.899C157.774 39.38 157.622 39.849 157.423 40.2984C157.072 41.0923 156.657 41.8567 156.184 42.5844C155.282 43.9828 154.269 45.3058 153.153 46.5403C153.031 46.6771 152.863 46.7637 152.68 46.7833C152.498 46.8029 152.315 46.7541 152.166 46.6464C152.018 46.5387 151.915 46.3797 151.877 46.2003C151.839 46.0209 151.869 45.8337 151.961 45.6751V45.6573C152.748 44.2864 153.527 42.8763 154.2 41.4805C154.53 40.8076 154.817 40.1142 155.058 39.4046C155.162 39.1033 155.234 38.7918 155.272 38.4753C155.285 38.382 155.285 38.2873 155.272 38.194V38.1726V38.1299C155.247 38.0587 155.229 37.9946 155.197 37.9198C154.92 37.2522 154.594 36.606 154.222 35.9863C153.83 35.3276 153.413 34.6688 152.986 34.0101C152.117 32.7069 151.206 31.3965 150.28 30.1289C150.058 29.8108 149.969 29.4189 150.031 29.0362C150.093 28.6534 150.302 28.3099 150.613 28.0784C150.924 27.847 151.313 27.7457 151.698 27.7961C152.082 27.8465 152.432 28.0447 152.673 28.3485L152.641 28.3556Z" fill="#FFB573"/>
<path id="Vector_31" d="M144.804 17.9868L144.273 17.7302C144.273 17.7302 144.484 18.2183 144.804 17.9868Z" fill="#263238"/>
<path id="Vector_32" d="M138.708 30.6024C138.928 29.704 139.211 28.8223 139.556 27.9639C140.102 27.8007 140.66 27.6817 141.226 27.6078C142.377 28.6285 143.325 29.8585 144.017 31.2327C145.545 29.6873 148.468 28.1241 150.249 27.5544C150.851 27.5164 151.455 27.5926 152.029 27.7788C150.815 31.6101 149.576 35.4628 151.773 36.4527C151.733 38.2723 151.837 40.5298 151.929 42.8122C149.853 42.5843 141.621 42.1891 138.277 42.9226C138.106 40.6081 138.046 38.6497 138.057 36.9583C136.501 34.975 138.06 32.276 138.708 30.6024Z" fill="#263238"/>
<g id="Clip path group">
<mask id="mask0_1_15415" style="mask-type:luminance" maskUnits="userSpaceOnUse" x="137" y="27" width="16" height="16">
<g id="freepik--clip-path--inject-1">
<path id="Vector_33" d="M138.708 30.6024C138.928 29.704 139.211 28.8223 139.556 27.9639C140.102 27.8007 140.66 27.6817 141.226 27.6078C142.377 28.6285 143.325 29.8585 144.017 31.2327C145.545 29.6873 148.468 28.1241 150.249 27.5544C150.851 27.5164 151.455 27.5926 152.029 27.7788C150.815 31.6101 149.576 35.4628 151.773 36.4527C151.733 38.2723 151.837 40.5298 151.929 42.8122C149.853 42.5843 141.621 42.1891 138.277 42.9226C138.106 40.6081 138.046 38.6497 138.057 36.9583C136.501 34.975 138.06 32.276 138.708 30.6024Z" fill="white"/>
</g>
</mask>
<g mask="url(#mask0_1_15415)">
<g id="Group">
<g id="Group_2" opacity="0.2">
<path id="Vector_34" d="M141.98 37.7274C141.962 37.7297 141.944 37.7368 141.929 37.748C141.914 37.7593 141.902 37.7743 141.895 37.7915C141.642 38.4997 141.65 39.2747 141.916 39.9778C141.671 39.7713 141.428 39.5683 141.204 39.3618C141.405 38.933 141.482 38.457 141.428 37.9867C141.374 37.5165 141.191 37.0705 140.898 36.6984C140.887 36.6838 140.872 36.6723 140.855 36.6648C140.839 36.6574 140.82 36.6542 140.802 36.6556C140.783 36.6571 140.765 36.6639 140.75 36.6753C140.735 36.6866 140.723 36.7021 140.716 36.7197C140.456 37.4478 140.472 38.2463 140.763 38.963C140.442 38.671 140.136 38.379 139.855 38.0977C140.065 37.6668 140.149 37.1853 140.098 36.7085C140.047 36.2317 139.863 35.779 139.566 35.4023C139.555 35.3877 139.54 35.3762 139.524 35.3687C139.507 35.3612 139.488 35.3581 139.47 35.3595C139.451 35.361 139.433 35.3678 139.418 35.3792C139.403 35.3905 139.391 35.4059 139.385 35.4236C139.126 36.1532 139.142 36.9522 139.431 37.6705C138.943 37.1613 138.537 36.6984 138.235 36.3138C138.126 35.8833 137.91 35.4873 137.606 35.1629C137.303 34.8385 136.923 34.5962 136.5 34.4587C136.483 34.4557 136.466 34.4568 136.449 34.4619C136.432 34.4671 136.417 34.4761 136.405 34.4883C136.392 34.5004 136.383 34.5154 136.377 34.5319C136.371 34.5484 136.37 34.566 136.372 34.5833C136.693 36.1607 137.854 36.4349 138.089 36.4741C138.256 36.6841 138.445 36.9156 138.672 37.1648C138.114 36.9148 137.494 36.8403 136.892 36.9512C136.874 36.9554 136.857 36.9646 136.844 36.9778C136.831 36.9911 136.822 37.0077 136.817 37.026C136.812 37.0436 136.811 37.0623 136.815 37.0803C136.819 37.0983 136.827 37.1152 136.839 37.1292C137.145 37.4783 137.542 37.7349 137.987 37.8702C138.431 38.0055 138.904 38.014 139.353 37.8948C139.552 38.1013 139.766 38.3114 139.99 38.5286C139.236 38.313 138.431 38.3607 137.708 38.6639C137.69 38.673 137.676 38.6866 137.666 38.7032C137.656 38.7198 137.651 38.7389 137.651 38.7583C137.651 38.7777 137.656 38.7967 137.666 38.8133C137.676 38.8299 137.69 38.8435 137.708 38.8526C138.114 39.1058 138.58 39.2479 139.058 39.2647C139.537 39.2816 140.012 39.1727 140.435 38.9488C140.734 39.2301 141.051 39.5114 141.379 39.7927C140.649 39.4634 139.824 39.4152 139.061 39.6574C139.043 39.6645 139.027 39.6762 139.015 39.6911C139.004 39.7061 138.996 39.7239 138.993 39.7428C138.991 39.7613 138.994 39.78 139.001 39.7974C139.007 39.8147 139.018 39.8302 139.032 39.8425C139.407 40.1461 139.858 40.3401 140.337 40.403C140.815 40.4658 141.301 40.3951 141.742 40.1986L141.77 40.1808C141.782 40.169 141.789 40.1541 141.792 40.1381L142.194 40.4656C142.207 40.4824 142.224 40.4949 142.244 40.5012C142.458 40.6722 142.675 40.8395 142.896 41.0033C142.915 41.0199 142.939 41.029 142.965 41.029C142.99 41.029 143.015 41.0199 143.034 41.0033C143.043 40.9919 143.049 40.9789 143.052 40.9652C143.055 40.9515 143.055 40.9372 143.053 40.9233C143.051 40.9094 143.046 40.8961 143.038 40.8842C143.031 40.8723 143.021 40.8619 143.009 40.8538C142.807 40.7007 142.604 40.5475 142.408 40.3873C142.593 39.9632 142.659 39.4968 142.6 39.0379C142.541 38.5789 142.359 38.1445 142.073 37.7808C142.064 37.7646 142.05 37.7511 142.034 37.7417C142.018 37.7323 141.999 37.7274 141.98 37.7274Z" fill="white"/>
<path id="Vector_35" d="M138.47 32.2117C138.488 32.2094 138.506 32.2023 138.521 32.1911C138.536 32.1798 138.548 32.1648 138.555 32.1476C138.807 31.4394 138.8 30.6644 138.534 29.9613C138.779 30.1678 139.021 30.3708 139.246 30.5773C139.045 31.0061 138.968 31.4821 139.022 31.9524C139.076 32.4226 139.259 32.8687 139.552 33.2407C139.563 33.2553 139.578 33.2668 139.595 33.2743C139.611 33.2818 139.63 33.2849 139.648 33.2835C139.667 33.282 139.685 33.2752 139.7 33.2638C139.715 33.2525 139.727 33.2371 139.734 33.2194C139.994 32.4913 139.978 31.6928 139.687 30.9761C140.008 31.2681 140.314 31.5601 140.595 31.8414C140.385 32.2723 140.301 32.7538 140.352 33.2306C140.403 33.7074 140.587 34.1601 140.884 34.5368C140.895 34.5514 140.91 34.5629 140.926 34.5704C140.943 34.5779 140.962 34.581 140.98 34.5796C140.999 34.5781 141.017 34.5713 141.032 34.5599C141.047 34.5486 141.059 34.5332 141.065 34.5155C141.324 33.7859 141.308 32.9869 141.019 32.2687C141.507 32.7778 141.913 33.2407 142.215 33.6253C142.324 34.0559 142.54 34.4518 142.843 34.7762C143.147 35.1007 143.527 35.3429 143.949 35.4804C143.967 35.4834 143.984 35.4823 144.001 35.4772C144.018 35.472 144.033 35.463 144.045 35.4508C144.058 35.4387 144.067 35.4237 144.073 35.4072C144.079 35.3907 144.08 35.3731 144.078 35.3558C143.757 33.7784 142.596 33.5042 142.361 33.4651C142.194 33.255 142.005 33.0235 141.777 32.7743C142.335 33.0254 142.957 33.0987 143.558 32.9844C143.576 32.9813 143.593 32.9728 143.606 32.9601C143.619 32.9475 143.629 32.9311 143.633 32.9131C143.638 32.8955 143.639 32.8768 143.635 32.8588C143.631 32.8408 143.623 32.8239 143.611 32.8099C143.305 32.4608 142.908 32.2042 142.463 32.0689C142.019 31.9336 141.546 31.9251 141.097 32.0443C140.898 31.8378 140.684 31.6277 140.46 31.4105C141.214 31.6261 142.019 31.5784 142.742 31.2752C142.76 31.2661 142.774 31.2525 142.784 31.2359C142.794 31.2193 142.799 31.2002 142.799 31.1808C142.799 31.1614 142.794 31.1424 142.784 31.1258C142.774 31.1092 142.76 31.0956 142.742 31.0865C142.336 30.8333 141.87 30.6912 141.391 30.6744C140.913 30.6575 140.438 30.7665 140.015 30.9903C139.716 30.709 139.399 30.4277 139.071 30.1465C139.801 30.4757 140.626 30.5239 141.389 30.2818C141.407 30.274 141.422 30.2622 141.434 30.2473C141.445 30.2325 141.453 30.215 141.457 30.1963C141.459 30.1778 141.456 30.1591 141.449 30.1417C141.443 30.1244 141.432 30.1089 141.418 30.0966C141.043 29.793 140.591 29.599 140.113 29.5362C139.635 29.4733 139.149 29.544 138.708 29.7405L138.68 29.7583C138.668 29.7701 138.661 29.785 138.658 29.8011L138.256 29.4735C138.243 29.4567 138.226 29.4442 138.206 29.4379C137.992 29.2669 137.775 29.0996 137.554 28.9358C137.535 28.9193 137.51 28.9102 137.485 28.9102C137.46 28.9102 137.435 28.9193 137.416 28.9358C137.399 28.9588 137.393 28.987 137.397 29.0148C137.401 29.0426 137.415 29.0678 137.437 29.0854C137.643 29.2385 137.846 29.3916 138.042 29.5518C137.857 29.976 137.791 30.4423 137.85 30.9013C137.909 31.3602 138.091 31.7946 138.377 32.1583C138.386 32.1745 138.4 32.188 138.416 32.1974C138.432 32.2068 138.451 32.2117 138.47 32.2117Z" fill="white"/>
<path id="Vector_36" d="M149.448 40.3268C149.43 40.3293 149.412 40.3361 149.398 40.3467C149.383 40.3572 149.371 40.3712 149.362 40.3873C149.113 41.0961 149.12 41.8699 149.384 42.5736C149.138 42.3707 148.896 42.1641 148.671 41.9576C148.872 41.5295 148.95 41.054 148.896 40.5843C148.841 40.1145 148.658 39.6691 148.365 39.2978C148.354 39.2831 148.34 39.2715 148.323 39.2642C148.306 39.2568 148.288 39.2539 148.269 39.2556C148.251 39.2574 148.234 39.2639 148.219 39.2744C148.204 39.2849 148.192 39.299 148.184 39.3156C147.925 40.0451 147.941 40.8441 148.23 41.5624C147.909 41.2668 147.603 40.9784 147.322 40.6971C147.533 40.267 147.618 39.7859 147.567 39.3094C147.516 38.833 147.331 38.3808 147.033 38.0052C147.023 37.9898 147.008 37.9777 146.991 37.9701C146.974 37.9626 146.956 37.9599 146.937 37.9625C146.919 37.9647 146.902 37.9714 146.887 37.982C146.872 37.9925 146.86 38.0066 146.852 38.023C146.593 38.7526 146.609 39.5516 146.898 40.2698C146.41 39.7642 146.004 39.2978 145.702 38.9132C145.592 38.4832 145.375 38.0879 145.072 37.7636C144.769 37.4394 144.389 37.1967 143.968 37.058C143.951 37.0546 143.933 37.0553 143.916 37.0603C143.899 37.0653 143.884 37.0743 143.872 37.0865C143.859 37.0994 143.849 37.1151 143.843 37.1325C143.838 37.1498 143.836 37.1683 143.839 37.1862C144.16 38.7601 145.324 39.0343 145.556 39.0734C145.723 39.2835 145.912 39.5185 146.14 39.7678C145.582 39.5175 144.961 39.443 144.359 39.5541C144.341 39.559 144.325 39.5685 144.312 39.5816C144.299 39.5947 144.289 39.611 144.285 39.6289C144.279 39.646 144.278 39.6641 144.282 39.6816C144.286 39.699 144.294 39.7153 144.306 39.7286C144.61 40.0801 145.008 40.3384 145.452 40.4739C145.897 40.6093 146.371 40.6163 146.82 40.4942C147.019 40.7007 147.233 40.9143 147.457 41.1315C146.703 40.9139 145.898 40.9617 145.175 41.2668C145.158 41.2765 145.145 41.29 145.135 41.3062C145.125 41.3223 145.119 41.3405 145.118 41.3594C145.117 41.3783 145.122 41.3968 145.132 41.4132C145.141 41.4295 145.155 41.4429 145.171 41.452C145.578 41.7054 146.043 41.8479 146.522 41.8654C147 41.8829 147.475 41.7747 147.899 41.5517C148.198 41.8294 148.515 42.1107 148.842 42.3956C148.113 42.0663 147.287 42.0182 146.524 42.2603C146.507 42.2675 146.491 42.2791 146.479 42.2941C146.467 42.3091 146.46 42.3269 146.457 42.3457C146.454 42.3641 146.457 42.3828 146.465 42.3997C146.472 42.4166 146.484 42.4312 146.499 42.4419C146.874 42.7455 147.326 42.9395 147.804 43.0023C148.282 43.0652 148.769 42.9944 149.209 42.798L149.234 42.7766C149.244 42.765 149.253 42.7517 149.259 42.7374L149.661 43.065C149.672 43.0816 149.689 43.0941 149.708 43.1006C149.921 43.2715 150.138 43.4389 150.359 43.6063C150.379 43.6228 150.403 43.6319 150.429 43.6319C150.454 43.6319 150.479 43.6228 150.498 43.6063C150.515 43.5836 150.522 43.5551 150.518 43.5271C150.514 43.499 150.499 43.4737 150.477 43.4567C150.27 43.3036 150.071 43.1469 149.871 42.9902C150.057 42.5665 150.125 42.1002 150.066 41.6412C150.008 41.1822 149.826 40.7476 149.54 40.3838C149.531 40.3671 149.518 40.3531 149.501 40.3431C149.485 40.3331 149.467 40.3275 149.448 40.3268Z" fill="white"/>
<path id="Vector_37" d="M156.295 42.7872C156.276 42.7887 156.258 42.7955 156.243 42.8068C156.228 42.8182 156.216 42.8336 156.209 42.8513C155.955 43.559 155.962 44.3341 156.227 45.0376C155.981 44.8311 155.743 44.6245 155.515 44.4216C155.716 43.9932 155.795 43.5173 155.741 43.047C155.688 42.5766 155.505 42.1304 155.212 41.7582C155.201 41.743 155.185 41.7312 155.168 41.7237C155.151 41.7162 155.131 41.7134 155.113 41.7154C155.094 41.718 155.076 41.7252 155.062 41.7364C155.047 41.7477 155.035 41.7625 155.027 41.7795C154.768 42.5078 154.785 43.3058 155.073 44.0228C154.753 43.7308 154.45 43.4388 154.169 43.1575C154.379 42.7266 154.464 42.2451 154.413 41.7683C154.362 41.2915 154.177 40.8387 153.881 40.462C153.869 40.4475 153.855 40.4359 153.838 40.4285C153.821 40.421 153.803 40.4179 153.784 40.4193C153.766 40.4208 153.747 40.4276 153.732 40.439C153.717 40.4503 153.706 40.4657 153.699 40.4834C153.438 41.2127 153.455 42.0123 153.745 42.7302C153.257 42.221 152.848 41.7582 152.549 41.3736C152.44 40.943 152.224 40.5471 151.921 40.2226C151.617 39.8982 151.237 39.656 150.815 39.5184C150.797 39.5146 150.779 39.5151 150.762 39.5199C150.745 39.5247 150.73 39.5337 150.717 39.5461C150.704 39.5585 150.695 39.5738 150.689 39.5907C150.684 39.6077 150.683 39.6257 150.687 39.6431C151.007 41.2205 152.168 41.4947 152.403 41.5338C152.567 41.7439 152.759 41.9754 152.987 42.2246C152.429 41.9752 151.808 41.9007 151.206 42.011C151.189 42.0165 151.173 42.0261 151.16 42.0392C151.147 42.0522 151.137 42.0682 151.132 42.0857C151.127 42.1037 151.126 42.1225 151.131 42.1406C151.135 42.1586 151.144 42.1753 151.157 42.189C151.462 42.5375 151.859 42.7937 152.303 42.9289C152.746 43.0642 153.219 43.073 153.667 42.9546C153.87 43.1611 154.08 43.3712 154.304 43.5884C153.551 43.3727 152.747 43.4205 152.025 43.7237C152.008 43.7323 151.994 43.7455 151.984 43.7619C151.974 43.7782 151.968 43.7971 151.968 43.8163C151.968 43.8352 151.972 43.8538 151.981 43.8706C151.99 43.8874 152.003 43.9018 152.018 43.9124C152.426 44.1645 152.892 44.306 153.371 44.3228C153.85 44.3397 154.325 44.2313 154.749 44.0085C155.048 44.2886 155.362 44.57 155.689 44.8524C154.96 44.5232 154.134 44.475 153.371 44.7171C153.354 44.7238 153.338 44.7354 153.327 44.7505C153.316 44.7657 153.309 44.7837 153.307 44.8026C153.305 44.8211 153.308 44.8398 153.315 44.8572C153.322 44.8745 153.332 44.89 153.346 44.9023C153.721 45.2055 154.173 45.3993 154.651 45.4621C155.129 45.525 155.616 45.4544 156.056 45.2584C156.064 45.26 156.073 45.26 156.081 45.2584C156.094 45.2478 156.103 45.2325 156.106 45.2156L156.508 45.5432C156.52 45.559 156.536 45.5713 156.555 45.5788C156.768 45.7497 156.985 45.9171 157.206 46.0809C157.226 46.0974 157.25 46.1065 157.276 46.1065C157.301 46.1065 157.326 46.0974 157.345 46.0809C157.354 46.0699 157.361 46.0571 157.364 46.0434C157.368 46.0298 157.369 46.0155 157.367 46.0015C157.365 45.9874 157.36 45.974 157.353 45.9619C157.345 45.9498 157.335 45.9394 157.324 45.9313L156.718 45.4649C156.904 45.0411 156.972 44.5749 156.913 44.1159C156.855 43.6568 156.673 43.2222 156.387 42.8584C156.38 42.8391 156.368 42.8222 156.351 42.8096C156.335 42.797 156.315 42.7892 156.295 42.7872Z" fill="white"/>
<path id="Vector_38" d="M140.638 43.1896C140.619 43.1912 140.602 43.1976 140.587 43.2082C140.572 43.2189 140.56 43.2333 140.552 43.2501C140.298 43.9579 140.305 44.7329 140.57 45.4364C140.324 45.2335 140.086 45.0269 139.858 44.8204C140.059 44.3921 140.138 43.9161 140.084 43.4458C140.031 42.9755 139.848 42.5292 139.555 42.157C139.543 42.1425 139.528 42.1313 139.511 42.1242C139.494 42.1172 139.475 42.1146 139.457 42.1168C139.438 42.1189 139.421 42.1257 139.405 42.1364C139.39 42.1472 139.378 42.1616 139.37 42.1783C139.111 42.9079 139.128 43.7069 139.416 44.4252C139.096 44.1296 138.793 43.8412 138.512 43.5599C138.722 43.129 138.807 42.6475 138.756 42.1707C138.705 41.6939 138.52 41.2411 138.223 40.8644C138.213 40.8497 138.198 40.8383 138.181 40.8314C138.164 40.8244 138.145 40.8223 138.127 40.8253C138.109 40.826 138.091 40.8321 138.076 40.8429C138.06 40.8536 138.049 40.8685 138.042 40.8858C137.781 41.6151 137.798 42.4147 138.088 43.1326C137.666 42.7012 137.267 42.2484 136.892 41.776C136.782 41.346 136.565 40.9507 136.262 40.6264C135.959 40.3022 135.579 40.0595 135.158 39.9208C135.14 39.9174 135.122 39.9181 135.104 39.9231C135.087 39.928 135.071 39.937 135.058 39.9493C135.047 39.9624 135.038 39.9777 135.033 39.9943C135.028 40.0109 135.027 40.0283 135.029 40.0455C135.35 41.6229 136.511 41.8971 136.746 41.9362C136.91 42.1463 137.102 42.3778 137.33 42.6484C136.772 42.3954 136.151 42.3208 135.549 42.4347C135.532 42.4393 135.516 42.4482 135.503 42.4607C135.49 42.4732 135.48 42.4887 135.475 42.5059C135.47 42.5239 135.469 42.5427 135.474 42.5608C135.478 42.5788 135.487 42.5955 135.499 42.6092C135.803 42.9607 136.2 43.2191 136.644 43.3546C137.088 43.4901 137.562 43.4971 138.01 43.3748C138.213 43.5813 138.423 43.7949 138.647 44.0121C137.895 43.793 137.09 43.8408 136.368 44.1474C136.351 44.1555 136.337 44.168 136.327 44.1838C136.317 44.1995 136.312 44.2178 136.311 44.2365C136.311 44.2554 136.315 44.2742 136.324 44.2911C136.332 44.3079 136.345 44.3222 136.361 44.3326C136.768 44.5859 137.234 44.7284 137.713 44.7459C138.193 44.7634 138.668 44.6553 139.092 44.4323C139.391 44.71 139.705 44.9913 140.032 45.2726C139.302 44.9442 138.477 44.8973 137.714 45.1409C137.697 45.1473 137.682 45.1584 137.671 45.1728C137.659 45.1873 137.652 45.2046 137.65 45.2228C137.648 45.2414 137.65 45.2603 137.657 45.2777C137.664 45.2951 137.675 45.3106 137.689 45.3225C138.064 45.6257 138.516 45.8195 138.994 45.8823C139.472 45.9452 139.958 45.8746 140.399 45.6786C140.407 45.6802 140.416 45.6802 140.424 45.6786C140.437 45.6689 140.446 45.655 140.449 45.6394L140.851 45.967C140.863 45.9828 140.879 45.9951 140.898 46.0026C141.115 46.1735 141.328 46.3409 141.549 46.5082C141.569 46.5248 141.593 46.5339 141.619 46.5339C141.644 46.5339 141.669 46.5248 141.688 46.5082C141.697 46.4972 141.703 46.4844 141.707 46.4708C141.711 46.4571 141.712 46.4428 141.71 46.4288C141.708 46.4148 141.703 46.4013 141.696 46.3892C141.688 46.3772 141.678 46.3668 141.667 46.3587L141.061 45.8922C141.247 45.4678 141.314 45.001 141.256 44.5415C141.198 44.0819 141.016 43.6467 140.73 43.2822C140.729 43.2582 140.718 43.2356 140.701 43.2186C140.684 43.2016 140.662 43.1913 140.638 43.1896Z" fill="white"/>
<path id="Vector_39" d="M149.22 28.1881C149.201 28.1907 149.184 28.1979 149.169 28.2091C149.154 28.2204 149.142 28.2352 149.134 28.2522C148.885 28.9609 148.892 29.7348 149.156 30.4385C148.91 30.232 148.668 30.029 148.443 29.8225C148.644 29.3937 148.722 28.9177 148.667 28.4474C148.613 27.9772 148.43 27.5312 148.137 27.1591C148.126 27.1445 148.111 27.133 148.095 27.1255C148.078 27.1181 148.059 27.1149 148.041 27.1163C148.022 27.1178 148.004 27.1246 147.989 27.136C147.974 27.1473 147.962 27.1627 147.956 27.1804C147.697 27.9088 147.713 28.7067 148.002 29.4237C147.681 29.1317 147.375 28.8397 147.094 28.5584C147.304 28.1275 147.389 27.646 147.338 27.1692C147.287 26.6924 147.102 26.2397 146.805 25.863C146.795 25.8481 146.78 25.8364 146.763 25.8289C146.746 25.8214 146.728 25.8185 146.709 25.8202C146.69 25.8217 146.672 25.8285 146.657 25.8399C146.642 25.8512 146.631 25.8666 146.624 25.8843C146.365 26.6139 146.381 27.4129 146.67 28.1311C146.182 27.622 145.776 27.1591 145.474 26.7745C145.365 26.344 145.149 25.948 144.846 25.6236C144.542 25.2991 144.162 25.0569 143.74 24.9194C143.723 24.9164 143.705 24.9175 143.688 24.9226C143.672 24.9278 143.656 24.9368 143.644 24.949C143.631 24.9611 143.622 24.9761 143.616 24.9926C143.611 25.0091 143.609 25.0267 143.611 25.044C143.932 26.6214 145.096 26.8956 145.328 26.9347C145.495 27.1448 145.684 27.3763 145.912 27.6255C145.354 27.3752 144.733 27.3007 144.131 27.4119C144.114 27.4174 144.098 27.427 144.085 27.4401C144.072 27.4531 144.062 27.4691 144.057 27.4867C144.051 27.5043 144.05 27.523 144.054 27.541C144.058 27.559 144.066 27.5759 144.078 27.5899C144.384 27.939 144.782 28.1956 145.226 28.3309C145.67 28.4662 146.143 28.4747 146.592 28.3555C146.791 28.562 147.005 28.7721 147.229 28.9893C146.475 28.7737 145.67 28.8214 144.947 29.1246C144.931 29.1343 144.917 29.1478 144.907 29.1639C144.897 29.18 144.891 29.1983 144.89 29.2172C144.89 29.2365 144.894 29.2555 144.904 29.2724C144.913 29.2892 144.927 29.3034 144.943 29.3133C145.35 29.5665 145.816 29.7085 146.294 29.7254C146.773 29.7423 147.247 29.6333 147.671 29.4095C147.97 29.6908 148.287 29.9721 148.614 30.2534C147.885 29.9241 147.059 29.8759 146.296 30.118C146.279 30.1252 146.263 30.1369 146.251 30.1518C146.239 30.1668 146.232 30.1846 146.229 30.2035C146.227 30.2224 146.229 30.2415 146.237 30.259C146.244 30.2764 146.256 30.2917 146.271 30.3032C146.646 30.6065 147.097 30.8003 147.574 30.8632C148.052 30.926 148.538 30.8555 148.978 30.6593L149.006 30.6415C149.017 30.6297 149.025 30.6148 149.027 30.5987L149.43 30.9263C149.443 30.9424 149.46 30.9547 149.48 30.9619C149.693 31.1329 149.91 31.3002 150.131 31.464C150.151 31.4806 150.175 31.4896 150.201 31.4896C150.226 31.4896 150.251 31.4806 150.27 31.464C150.287 31.4413 150.294 31.4128 150.29 31.3848C150.286 31.3568 150.271 31.3315 150.249 31.3145C150.042 31.1613 149.843 31.0082 149.643 30.848C149.829 30.4242 149.897 29.958 149.838 29.499C149.78 29.0399 149.598 28.6054 149.312 28.2415C149.302 28.2259 149.288 28.213 149.272 28.2037C149.256 28.1944 149.238 28.1891 149.22 28.1881Z" fill="white"/>
<path id="Vector_40" d="M145.837 34.9536C145.855 34.9521 145.873 34.9456 145.888 34.935C145.903 34.9244 145.915 34.9099 145.922 34.8931C146.176 34.1853 146.17 33.4103 145.904 32.7068C146.15 32.9098 146.389 33.1163 146.617 33.3228C146.415 33.7512 146.337 34.2271 146.39 34.6974C146.444 35.1678 146.627 35.614 146.919 35.9862C146.931 36.0007 146.946 36.012 146.963 36.019C146.981 36.026 146.999 36.0286 147.018 36.0265C147.036 36.0243 147.054 36.0176 147.069 36.0068C147.084 35.996 147.096 35.9816 147.104 35.9649C147.363 35.2353 147.347 34.4363 147.058 33.7181C147.379 34.0124 147.681 34.3008 147.966 34.5833C147.756 35.0143 147.671 35.4958 147.722 35.9726C147.773 36.4493 147.958 36.9021 148.255 37.2788C148.266 37.2932 148.281 37.3045 148.299 37.3115C148.316 37.3186 148.335 37.3211 148.353 37.319C148.371 37.3169 148.389 37.3101 148.404 37.2993C148.419 37.2886 148.432 37.2742 148.44 37.2574C148.699 36.5277 148.681 35.7281 148.39 35.0106C148.812 35.442 149.211 35.8948 149.586 36.3672C149.696 36.7978 149.913 37.1935 150.217 37.5179C150.521 37.8422 150.901 38.0845 151.324 38.2224C151.341 38.2259 151.359 38.2251 151.376 38.2201C151.392 38.2152 151.408 38.2062 151.42 38.1939C151.432 38.1807 151.441 38.1648 151.446 38.1475C151.451 38.1301 151.452 38.1119 151.449 38.0942C151.132 36.5204 149.967 36.2462 149.732 36.207C149.568 35.9969 149.376 35.7655 149.148 35.4949C149.706 35.7478 150.327 35.8224 150.929 35.7085C150.946 35.7039 150.962 35.695 150.975 35.6825C150.988 35.6701 150.998 35.6545 151.003 35.6373C151.008 35.6194 151.009 35.6005 151.004 35.5825C151 35.5644 150.991 35.5478 150.978 35.534C150.675 35.1825 150.278 34.9241 149.834 34.7886C149.39 34.6531 148.916 34.6461 148.468 34.7685C148.269 34.5619 148.055 34.3483 147.831 34.1311C148.583 34.3502 149.388 34.3024 150.11 33.9958C150.127 33.9872 150.141 33.974 150.151 33.9576C150.161 33.9412 150.167 33.9224 150.167 33.9032C150.168 33.8847 150.164 33.8662 150.155 33.8498C150.146 33.8335 150.133 33.8199 150.117 33.8106C149.71 33.5573 149.244 33.4148 148.765 33.3973C148.285 33.3798 147.81 33.488 147.386 33.7109C147.087 33.4332 146.773 33.1519 146.446 32.8706C147.176 33.1973 148.001 33.2442 148.764 33.0023C148.781 32.9959 148.796 32.9849 148.807 32.9704C148.819 32.956 148.826 32.9387 148.828 32.9204C148.831 32.9018 148.829 32.8827 148.822 32.8651C148.815 32.8475 148.804 32.8322 148.789 32.8207C148.414 32.5164 147.963 32.3219 147.484 32.2591C147.006 32.1962 146.519 32.2674 146.079 32.4647C146.071 32.463 146.062 32.463 146.054 32.4647C146.044 32.4763 146.035 32.4895 146.029 32.5038L145.627 32.1762C145.616 32.1597 145.599 32.1472 145.58 32.1406C145.367 31.9697 145.15 31.7846 144.929 31.635C144.909 31.6185 144.885 31.6094 144.859 31.6094C144.834 31.6094 144.809 31.6185 144.79 31.635C144.773 31.6577 144.766 31.6862 144.77 31.7142C144.774 31.7423 144.789 31.7676 144.811 31.7846L145.417 32.251C145.231 32.6754 145.164 33.1422 145.222 33.6018C145.28 34.0613 145.462 34.4965 145.748 34.8611C145.751 34.8838 145.761 34.905 145.777 34.9216C145.793 34.9382 145.814 34.9494 145.837 34.9536Z" fill="white"/>
</g>
</g>
</g>
</g>
<path id="Vector_41" d="M147.4 38.0157L123.543 40.4228C122.907 40.4875 122.322 40.8021 121.917 41.2975C121.513 41.7928 121.321 42.4285 121.385 43.0649L122.204 51.2225C122.825 50.7822 123.551 50.5125 124.309 50.4404C125.068 50.3682 125.831 50.4961 126.525 50.8113C127.218 51.1266 127.816 51.6181 128.26 52.2368C128.704 52.8556 128.978 53.5799 129.055 54.3376C129.131 55.0953 129.008 55.8598 128.697 56.5548C128.386 57.2499 127.898 57.8513 127.281 58.2988C126.665 58.7464 125.943 59.0246 125.185 59.1056C124.428 59.1867 123.663 59.0677 122.966 58.7606L123.789 66.9183C123.854 67.5544 124.169 68.1388 124.664 68.5437C125.159 68.9487 125.794 69.1413 126.431 69.0796L150.288 66.6761C150.924 66.6096 151.508 66.2941 151.913 65.7986C152.318 65.303 152.511 64.6675 152.449 64.0305L150.045 40.1736C149.978 39.5377 149.662 38.9543 149.167 38.5502C148.671 38.146 148.036 37.954 147.4 38.0157Z" fill="#FFCA40"/>
<path id="Vector_42" opacity="0.3" d="M147.4 38.0157L123.543 40.4228C122.907 40.4875 122.322 40.8021 121.917 41.2975C121.513 41.7928 121.321 42.4285 121.385 43.0649L122.204 51.2225C122.825 50.7822 123.551 50.5125 124.309 50.4404C125.068 50.3682 125.831 50.4961 126.525 50.8113C127.218 51.1266 127.816 51.6181 128.26 52.2368C128.704 52.8556 128.978 53.5799 129.055 54.3376C129.131 55.0953 129.008 55.8598 128.697 56.5548C128.386 57.2499 127.898 57.8513 127.281 58.2988C126.665 58.7464 125.943 59.0246 125.185 59.1056C124.428 59.1867 123.663 59.0677 122.966 58.7606L123.789 66.9183C123.854 67.5544 124.169 68.1388 124.664 68.5437C125.159 68.9487 125.794 69.1413 126.431 69.0796L150.288 66.6761C150.924 66.6096 151.508 66.2941 151.913 65.7986C152.318 65.303 152.511 64.6675 152.449 64.0305L150.045 40.1736C149.978 39.5377 149.662 38.9543 149.167 38.5502C148.671 38.146 148.036 37.954 147.4 38.0157Z" fill="black"/>
<path id="Vector_43" d="M153.909 45.3332L152.805 44.8525L150.213 45.5148C149.915 45.5926 149.652 45.7666 149.465 46.0098L148.916 46.7219C148.8 46.8779 148.74 47.0696 148.749 47.2643C148.757 47.459 148.833 47.6448 148.963 47.7902L149.582 48.4738C149.731 48.6366 149.937 48.7352 150.157 48.7485C150.377 48.7618 150.594 48.6888 150.761 48.545L152.167 47.3379C152.167 47.3379 153.862 46.5439 153.909 45.3332Z" fill="#FFB573"/>
<path id="Vector_44" d="M131.437 40.8859L132.583 40.7399C132.738 40.7224 132.883 40.6548 132.995 40.5475C133.108 40.4401 133.182 40.2988 133.207 40.1453L133.363 39.2337C133.384 39.1252 133.38 39.0132 133.35 38.9068C133.32 38.8003 133.266 38.7023 133.191 38.6204C133.117 38.5385 133.025 38.475 132.922 38.435C132.819 38.395 132.708 38.3795 132.598 38.3898L131.259 38.486C131.071 38.4961 130.894 38.5805 130.768 38.7207C130.642 38.8609 130.576 39.0454 130.586 39.2337L130.622 40.1951C130.623 40.2962 130.647 40.3957 130.69 40.487C130.734 40.5783 130.796 40.6593 130.873 40.7247C130.95 40.79 131.04 40.8382 131.138 40.866C131.235 40.8938 131.337 40.9006 131.437 40.8859Z" fill="#FFB573"/>
<path id="Vector_45" d="M149.28 14.718C146.453 16.1423 141.485 15.4872 141.485 15.4872C141.485 15.4872 144.256 10.9579 149.28 14.718Z" fill="#263238"/>
</g>
<g id="freepik--character-2--inject-1">
<path id="Vector_46" d="M99.5298 105.061L98.109 112.457L94.5127 111.588L95.9334 104.192L99.5298 105.061Z" fill="#7F3E3B"/>
<path id="Vector_47" d="M94.626 110.085L98.6247 110.954C98.6867 110.966 98.7419 111.001 98.7794 111.052C98.817 111.102 98.8342 111.165 98.8277 111.228L98.55 114.166C98.5408 114.24 98.5163 114.311 98.4782 114.374C98.44 114.438 98.389 114.493 98.3283 114.536C98.2677 114.579 98.1987 114.609 98.1259 114.623C98.0531 114.638 97.978 114.638 97.9055 114.622C96.6485 114.326 96.2746 114.141 94.683 113.796C92.8278 113.386 92.1691 113.496 89.9899 113.019C88.6725 112.731 88.733 111.349 89.3241 111.346C90.8851 111.35 92.4195 110.94 93.7714 110.16C94.0364 110.027 94.342 110 94.626 110.085Z" fill="#263238"/>
<path id="Vector_48" opacity="0.2" d="M99.5326 105.065L98.7991 108.875L95.1992 108.006L95.9327 104.192L99.5326 105.065Z" fill="black"/>
<path id="Vector_49" d="M105.79 76.5785C110.009 64.1658 113.349 49.5169 113.349 49.5169L101.314 48.7549C101.314 48.7549 99.5336 67.7621 98.6149 76.5287C97.6535 85.637 94.666 106.2 94.666 106.2L100.096 107.301C100.096 107.301 105.188 87.9373 105.79 76.5785Z" fill="#263238"/>
<path id="Vector_50" opacity="0.2" d="M107.798 56.4248L110.717 60.0354C109.973 62.8235 109.104 65.9569 108.15 69.158C107.603 64.9364 107.484 60.6702 107.798 56.4248Z" fill="#263238"/>
<path id="Vector_51" d="M94.7439 106.973L99.7289 108.063C99.8283 108.085 99.9324 108.069 100.021 108.019C100.11 107.969 100.177 107.889 100.21 107.792L100.758 106.186C100.777 106.132 100.784 106.074 100.779 106.017C100.774 105.959 100.758 105.904 100.73 105.853C100.702 105.803 100.664 105.759 100.617 105.724C100.571 105.689 100.519 105.665 100.462 105.652L95.0537 104.388C94.9968 104.375 94.9377 104.373 94.8803 104.384C94.8229 104.396 94.7685 104.419 94.7207 104.452C94.6729 104.486 94.6328 104.529 94.603 104.58C94.5733 104.63 94.5545 104.686 94.548 104.744L94.4234 106.525C94.4122 106.626 94.4387 106.727 94.4978 106.81C94.557 106.893 94.6446 106.951 94.7439 106.973Z" fill="#263238"/>
<path id="Vector_52" opacity="0.1" d="M94.7439 106.973L99.7289 108.063C99.8283 108.085 99.9324 108.069 100.021 108.019C100.11 107.969 100.177 107.889 100.21 107.792L100.758 106.186C100.777 106.132 100.784 106.074 100.779 106.017C100.774 105.959 100.758 105.904 100.73 105.853C100.702 105.803 100.664 105.759 100.617 105.724C100.571 105.689 100.519 105.665 100.462 105.652L95.0537 104.388C94.9968 104.375 94.9377 104.373 94.8803 104.384C94.8229 104.396 94.7685 104.419 94.7207 104.452C94.6729 104.486 94.6328 104.529 94.603 104.58C94.5733 104.63 94.5545 104.686 94.548 104.744L94.4234 106.525C94.4122 106.626 94.4387 106.727 94.4978 106.81C94.557 106.893 94.6446 106.951 94.7439 106.973Z" fill="white"/>
<path id="Vector_53" d="M119.327 104.804L119.552 112.435L115.902 112.385L115.678 104.755L119.327 104.804Z" fill="#7F3E3B"/>
<path id="Vector_54" d="M115.809 110.819L119.69 110.876C119.753 110.875 119.814 110.899 119.861 110.941C119.908 110.983 119.937 111.041 119.943 111.104L120.256 114.038C120.262 114.112 120.253 114.187 120.228 114.257C120.204 114.327 120.165 114.392 120.114 114.446C120.063 114.5 120.001 114.543 119.932 114.572C119.864 114.601 119.79 114.616 119.715 114.614C118.426 114.575 118.02 114.468 116.393 114.444C114.492 114.412 114.082 114.65 111.853 114.618C110.504 114.597 110.286 113.229 110.863 113.108C112.395 112.802 113.818 112.097 114.99 111.064C115.222 110.881 115.515 110.793 115.809 110.819Z" fill="#263238"/>
<path id="Vector_55" opacity="0.2" d="M119.331 104.808L119.445 108.739L115.792 108.689L115.678 104.755L119.331 104.808Z" fill="black"/>
<path id="Vector_56" d="M118.419 76.3259C117.386 63.2686 118.259 56.2255 116.742 49.7414L105.789 49.0613C105.789 49.0613 109.19 68.2537 111.066 76.9348C112.943 85.6158 114.962 106.703 114.962 106.703L120.345 106.77C120.345 106.77 121.004 86.5132 118.419 76.3259Z" fill="#263238"/>
<path id="Vector_57" d="M114.976 107.671L120.072 107.749C120.177 107.75 120.279 107.711 120.356 107.64C120.434 107.568 120.481 107.47 120.488 107.365L120.599 105.684C120.603 105.628 120.596 105.573 120.578 105.52C120.56 105.467 120.532 105.419 120.494 105.377C120.457 105.336 120.412 105.303 120.361 105.28C120.31 105.256 120.255 105.244 120.2 105.242L114.656 105.072C114.594 105.069 114.533 105.081 114.476 105.106C114.42 105.131 114.37 105.168 114.33 105.215C114.289 105.262 114.261 105.317 114.245 105.377C114.229 105.436 114.227 105.499 114.239 105.559L114.595 107.34C114.614 107.429 114.662 107.509 114.73 107.569C114.799 107.629 114.885 107.664 114.976 107.671Z" fill="#263238"/>
<path id="Vector_58" opacity="0.1" d="M114.976 107.671L120.072 107.749C120.177 107.75 120.279 107.711 120.356 107.64C120.434 107.568 120.481 107.47 120.488 107.365L120.599 105.684C120.603 105.628 120.596 105.573 120.578 105.52C120.56 105.467 120.532 105.419 120.494 105.377C120.457 105.336 120.412 105.303 120.361 105.28C120.31 105.256 120.255 105.244 120.2 105.242L114.656 105.072C114.594 105.069 114.533 105.081 114.476 105.106C114.42 105.131 114.37 105.168 114.33 105.215C114.289 105.262 114.261 105.317 114.245 105.377C114.229 105.436 114.227 105.499 114.239 105.559L114.595 107.34C114.614 107.429 114.662 107.509 114.73 107.569C114.799 107.629 114.885 107.664 114.976 107.671Z" fill="white"/>
<path id="Vector_59" d="M105.437 28.9751C105.017 29.8831 104.579 30.6878 104.102 31.5175C103.625 32.3471 103.123 33.1519 102.567 33.9423C102.006 34.7585 101.392 35.5375 100.73 36.2746C99.9953 37.1233 99.1341 37.8535 98.1768 38.4396L98.0522 38.5108C97.8393 38.636 97.6024 38.7147 97.3569 38.7417C97.1114 38.7687 96.8629 38.7434 96.6279 38.6674C95.9336 38.4431 95.2606 38.1903 94.6019 37.9197C93.9431 37.6491 93.3022 37.35 92.6719 37.0366C92.0417 36.7233 91.4257 36.3921 90.8204 36.0361C90.215 35.68 89.6239 35.3239 89.04 34.8931C88.8309 34.7448 88.6802 34.5282 88.6137 34.2806C88.5473 34.0331 88.5694 33.7701 88.6762 33.5371C88.783 33.3041 88.9678 33.1157 89.1987 33.0044C89.4296 32.8931 89.6921 32.8659 89.9408 32.9275H89.98C90.6174 33.0806 91.2761 33.2658 91.9171 33.4332L93.8434 33.9423C94.4808 34.1168 95.1217 34.2628 95.752 34.4195C96.3822 34.5762 97.0125 34.6972 97.632 34.8254L96.0974 35.0569C96.6305 34.6147 97.1087 34.1102 97.5217 33.5542C98.0095 32.9275 98.4795 32.2367 98.946 31.5246C99.4124 30.8125 99.8361 30.0683 100.256 29.3134C100.676 28.5585 101.104 27.7787 101.481 27.0594L101.503 27.0203C101.786 26.5476 102.238 26.1991 102.767 26.0443C103.296 25.8895 103.864 25.9396 104.358 26.1848C104.852 26.4299 105.235 26.8521 105.432 27.3672C105.629 27.8823 105.624 28.4525 105.419 28.9644L105.437 28.9751Z" fill="#7F3E3B"/>
<path id="Vector_60" d="M106.313 22.7507C102.061 23.235 98.835 29.8188 98.835 29.8188L103.222 34.4869C103.222 34.4869 105.177 32.1582 107.277 29.2135C109.571 26.0053 109.677 22.3697 106.313 22.7507Z" fill="#FFCA40"/>
<path id="Vector_61" d="M105.79 23.7371C107.424 23.1567 114.745 24.0932 114.745 24.0932C113.321 25.9305 112.131 41.1455 112 49.8907C110.443 50.1044 104.476 49.6949 103.098 49.3744C103.276 45.9419 104.707 29.8402 105.79 23.7371Z" fill="white"/>
<path id="Vector_62" d="M101.064 28.3519C101.256 26.7697 102.023 25.3131 103.218 24.2588C104.414 23.2046 105.954 22.6261 107.548 22.6334C110.607 22.6578 113.656 22.9943 116.646 23.6375C117.112 23.7361 117.553 23.9271 117.944 24.1992C118.334 24.4713 118.667 24.8189 118.921 25.2216C119.174 25.6243 119.345 26.0738 119.422 26.5436C119.5 27.0134 119.482 27.4939 119.37 27.9567C117.116 37.4104 117.711 46.38 117.109 50.5531C114.963 51.342 112.685 51.7048 110.4 51.6214C110.4 51.6214 110.454 48.0215 110.956 41.9433C111.355 37.1113 112.07 25.749 113.545 23.8618C113.545 23.8618 108.26 23.1497 106.626 23.723C105.412 30.5774 104.522 51.3401 104.522 51.3436C101.937 51.1585 100.719 49.7199 100.758 49.2926C100.235 40.8929 100.498 33.2764 101.064 28.3519Z" fill="#FFCA40"/>
<path id="Vector_63" d="M113.733 17.8369C113.238 19.2612 112.665 21.7858 113.58 23.203C113.626 23.2688 113.658 23.3441 113.671 23.4235C113.685 23.5028 113.681 23.5843 113.66 23.6619C113.638 23.7396 113.6 23.8115 113.547 23.8725C113.495 23.9335 113.429 23.9821 113.356 24.0148C111.885 24.8632 110.185 25.2294 108.495 25.0617C106.198 24.8765 106.359 23.8403 106.95 23.1673C107.089 23.0119 107.283 22.9152 107.491 22.8967C109.66 22.6368 109.681 21.33 109.368 20.0481L113.733 17.8369Z" fill="#7F3E3B"/>
<path id="Vector_64" opacity="0.2" d="M111.953 18.7449L109.371 20.0588C109.453 20.3622 109.499 20.6741 109.51 20.9881C110.45 20.9881 111.782 20.3579 111.935 19.6351C112.014 19.3443 112.02 19.0386 111.953 18.7449Z" fill="black"/>
<path id="Vector_65" d="M110.291 12.8864C110.388 11.6019 109.689 10.502 108.73 10.4295C107.771 10.3571 106.915 11.3396 106.818 12.6241C106.721 13.9085 107.42 15.0084 108.379 15.0809C109.338 15.1533 110.194 14.1708 110.291 12.8864Z" fill="#263238"/>
<path id="Vector_66" d="M115.129 13.9452C114.652 16.7546 114.513 18.4246 112.954 19.7314C110.607 21.6934 107.314 20.0341 106.957 17.1392C106.633 14.5363 107.467 10.3738 110.308 9.53343C113.15 8.6931 115.607 11.1322 115.129 13.9452Z" fill="#7F3E3B"/>
<path id="Vector_67" d="M114.517 16.3201C114.482 16.3201 114.439 16.2739 114.4 16.2952C113.125 17.0074 112.712 15.4762 112.79 14.4579C112.816 14.1181 112.914 13.7878 113.077 13.4883C113.239 13.1889 113.463 12.9272 113.734 12.7202C112.352 12.8769 111.013 11.9867 110.992 11.1571C109.464 11.83 107.624 11.8692 106.794 10.4449C105.964 9.02062 107.15 7.15835 108.731 7.6533C108.09 6.50674 110.8 4.21362 113.638 7.59632C113.727 5.14297 117.693 7.59633 117.042 10.0069C118.879 10.6408 120.453 14.1303 117.337 14.8745C117.131 18.1076 114.517 16.3201 114.517 16.3201Z" fill="#263238"/>
<path id="Vector_68" d="M116.02 17.2032C115.588 17.7323 114.972 18.0784 114.296 18.1717C113.442 18.2678 113.253 17.399 113.691 16.6085C114.086 15.8964 115.005 14.992 115.767 15.2697C116.529 15.5474 116.575 16.5266 116.02 17.2032Z" fill="#7F3E3B"/>
<path id="Vector_69" d="M111.056 14.1554C111.035 14.3906 110.896 14.5652 110.742 14.5509C110.589 14.5367 110.482 14.3371 110.504 14.102C110.525 13.8668 110.664 13.6958 110.817 13.7101C110.97 13.7243 111.074 13.9238 111.056 14.1554Z" fill="#263238"/>
<path id="Vector_70" d="M108.296 13.8494C108.275 14.081 108.136 14.2556 107.983 14.2413C107.83 14.2271 107.726 14.0275 107.744 13.7959C107.762 13.5644 107.905 13.3862 108.058 13.4005C108.211 13.4147 108.332 13.6142 108.296 13.8494Z" fill="#263238"/>
<path id="Vector_71" d="M109.375 13.9807C109.035 14.6634 108.602 15.296 108.09 15.8608C108.238 15.9895 108.412 16.0846 108.6 16.1393C108.788 16.194 108.986 16.2071 109.179 16.1777L109.375 13.9807Z" fill="#630F0F"/>
<path id="Vector_72" d="M109.898 17.31C110.157 17.3282 110.416 17.2936 110.661 17.2086C110.906 17.1235 111.131 16.9896 111.322 16.8151C111.329 16.8085 111.334 16.8008 111.337 16.7923C111.34 16.7839 111.342 16.7748 111.342 16.7657C111.342 16.7567 111.34 16.7477 111.336 16.7393C111.332 16.731 111.327 16.7235 111.321 16.7172C111.314 16.7108 111.306 16.7059 111.298 16.7026C111.289 16.6992 111.28 16.6976 111.271 16.6978C111.262 16.6979 111.253 16.6999 111.245 16.7035C111.237 16.7072 111.229 16.7124 111.223 16.7189C111.006 16.9108 110.747 17.0486 110.466 17.121C110.186 17.1934 109.892 17.1984 109.61 17.1355C109.601 17.1335 109.592 17.1332 109.583 17.1349C109.574 17.1365 109.566 17.1399 109.559 17.1449C109.551 17.15 109.545 17.1565 109.54 17.1641C109.536 17.1716 109.533 17.1801 109.531 17.189C109.528 17.2068 109.532 17.2253 109.542 17.2405C109.552 17.2557 109.567 17.2666 109.585 17.2708C109.699 17.2887 109.798 17.3029 109.898 17.31Z" fill="#263238"/>
<path id="Vector_73" d="M111.968 13.5896C111.99 13.5948 112.013 13.5948 112.036 13.5896C112.052 13.5823 112.067 13.5718 112.079 13.5586C112.092 13.5455 112.101 13.53 112.108 13.513C112.114 13.4961 112.117 13.4781 112.116 13.46C112.115 13.442 112.111 13.4243 112.103 13.4079C112.02 13.2063 111.89 13.0274 111.724 12.8856C111.558 12.7438 111.361 12.6432 111.148 12.592C111.113 12.5868 111.076 12.5959 111.047 12.6172C111.018 12.6384 110.998 12.6703 110.992 12.706C110.986 12.7418 110.996 12.7783 111.017 12.8076C111.038 12.8368 111.07 12.8567 111.106 12.8628C111.273 12.9059 111.428 12.9877 111.558 13.1016C111.688 13.2154 111.789 13.3582 111.854 13.5184C111.866 13.5385 111.882 13.5555 111.902 13.5679C111.922 13.5803 111.945 13.5877 111.968 13.5896Z" fill="#263238"/>
<path id="Vector_74" d="M107.138 12.7134C107.161 12.7193 107.184 12.7198 107.206 12.7148C107.228 12.7099 107.249 12.6996 107.267 12.6849C107.394 12.5699 107.546 12.4863 107.711 12.4412C107.877 12.396 108.05 12.3904 108.218 12.4248C108.253 12.4347 108.29 12.4305 108.321 12.4132C108.352 12.3958 108.376 12.3667 108.386 12.3322C108.396 12.2972 108.391 12.2597 108.374 12.2278C108.357 12.1958 108.328 12.1719 108.293 12.1612C108.081 12.1129 107.86 12.1165 107.65 12.1717C107.44 12.2269 107.246 12.3321 107.085 12.4783C107.072 12.4909 107.062 12.5058 107.055 12.5223C107.048 12.5389 107.045 12.5566 107.045 12.5745C107.045 12.5923 107.048 12.6101 107.055 12.6266C107.062 12.6431 107.072 12.6581 107.085 12.6707C107.099 12.6895 107.117 12.7043 107.138 12.7134Z" fill="#263238"/>
<path id="Vector_75" d="M120.217 27.7643C120.449 28.2165 120.637 28.6082 120.822 29.0319C121.008 29.4556 121.178 29.8651 121.364 30.2853C121.72 31.1256 122.03 31.9802 122.321 32.8455C122.915 34.5956 123.37 36.3898 123.682 38.2115L123.778 38.9236L123.828 39.2797V39.3652V39.5218C123.828 39.6358 123.845 39.7497 123.845 39.8779C123.832 40.5269 123.703 41.1683 123.464 41.7722C123.11 42.6944 122.659 43.5764 122.119 44.4036C121.628 45.1779 121.097 45.9256 120.527 46.6433C119.968 47.3577 119.374 48.0434 118.747 48.6979C118.566 48.8888 118.323 49.0087 118.062 49.0357C117.801 49.0626 117.538 48.995 117.323 48.8449C117.107 48.6949 116.953 48.4724 116.887 48.218C116.822 47.9636 116.85 47.6942 116.966 47.4587V47.4302C117.703 45.8956 118.483 44.3431 119.103 42.8298C119.263 42.4523 119.405 42.0749 119.53 41.7081C119.654 41.3657 119.757 41.0161 119.84 40.6613C119.897 40.4407 119.918 40.2121 119.9 39.9847L119.882 39.9135L119.815 39.618L119.683 39.0305C119.272 37.4359 118.769 35.8666 118.177 34.3303C117.892 33.5469 117.568 32.7742 117.255 31.998C117.098 31.6134 116.931 31.2289 116.763 30.8479L116.265 29.7369L116.236 29.6728C115.986 29.1487 115.954 28.5466 116.148 27.9991C116.341 27.4515 116.745 27.0033 117.269 26.753C117.793 26.5028 118.395 26.471 118.943 26.6646C119.49 26.8583 119.938 27.2615 120.189 27.7856L120.217 27.7643Z" fill="#7F3E3B"/>
<path id="Vector_76" d="M117.013 23.7372C121.756 24.9336 123.066 30.9975 123.066 30.9975L117.176 35.2205C117.176 35.2205 115.717 33.693 115.275 30.1038C115.072 28.391 116.051 23.6909 117.013 23.7372Z" fill="#FFCA40"/>
<path id="Vector_77" d="M117.743 46.7039L115.001 47.7294L117.102 50.5423C117.102 50.5423 119.47 49.3139 119.021 47.9501L117.743 46.7039Z" fill="#7F3E3B"/>
<path id="Vector_78" d="M112.961 48.1282C112.222 48.004 111.464 48.0727 110.76 48.3276L112.12 40.2447C112.225 39.6135 112.076 38.9664 111.705 38.4451C111.334 37.9239 110.771 37.571 110.14 37.4638L86.4971 33.4829C85.867 33.3786 85.2213 33.528 84.7009 33.8982C84.1805 34.2685 83.8278 34.8296 83.7197 35.4591L82.3382 43.5597C83.0415 43.3015 83.8004 43.2327 84.5387 43.3603C85.1952 43.4705 85.8177 43.7298 86.3583 44.1183C86.8989 44.5069 87.3431 45.0142 87.6568 45.6014C87.9704 46.1886 88.1452 46.8399 88.1676 47.5052C88.19 48.1706 88.0594 48.8322 87.7859 49.4391C87.5124 50.046 87.1033 50.5821 86.5901 51.0061C86.0769 51.4301 85.4732 51.7307 84.8256 51.8848C84.178 52.0388 83.5036 52.0422 82.8545 51.8946C82.2053 51.7471 81.5987 51.4526 81.0812 51.0337L79.7175 59.1166C79.6123 59.7478 79.7616 60.3949 80.1327 60.9162C80.5038 61.4374 81.0664 61.7904 81.6972 61.8976L105.341 65.8785C105.971 65.9827 106.617 65.8335 107.138 65.4633C107.659 65.0931 108.013 64.532 108.121 63.9023L109.482 55.8158C110 56.228 110.605 56.5165 111.251 56.6594C111.898 56.8023 112.568 56.7958 113.212 56.6405C113.855 56.4851 114.455 56.1849 114.965 55.7628C115.475 55.3407 115.882 54.8078 116.155 54.2047C116.428 53.6015 116.56 52.9441 116.54 52.2823C116.52 51.6206 116.35 50.972 116.042 50.3861C115.734 49.8001 115.296 49.2921 114.762 48.9008C114.228 48.5096 113.612 48.2453 112.961 48.1282Z" fill="#FFCA40"/>
<path id="Vector_79" opacity="0.6" d="M112.961 48.1282C112.222 48.004 111.464 48.0727 110.76 48.3276L112.12 40.2447C112.225 39.6135 112.076 38.9664 111.705 38.4451C111.334 37.9239 110.771 37.571 110.14 37.4638L86.4971 33.4829C85.867 33.3786 85.2213 33.528 84.7009 33.8982C84.1805 34.2685 83.8278 34.8296 83.7197 35.4591L82.3382 43.5597C83.0415 43.3015 83.8004 43.2327 84.5387 43.3603C85.1952 43.4705 85.8177 43.7298 86.3583 44.1183C86.8989 44.5069 87.3431 45.0142 87.6568 45.6014C87.9704 46.1886 88.1452 46.8399 88.1676 47.5052C88.19 48.1706 88.0594 48.8322 87.7859 49.4391C87.5124 50.046 87.1033 50.5821 86.5901 51.0061C86.0769 51.4301 85.4732 51.7307 84.8256 51.8848C84.178 52.0388 83.5036 52.0422 82.8545 51.8946C82.2053 51.7471 81.5987 51.4526 81.0812 51.0337L79.7175 59.1166C79.6123 59.7478 79.7616 60.3949 80.1327 60.9162C80.5038 61.4374 81.0664 61.7904 81.6972 61.8976L105.341 65.8785C105.971 65.9827 106.617 65.8335 107.138 65.4633C107.659 65.0931 108.013 64.532 108.121 63.9023L109.482 55.8158C110 56.228 110.605 56.5165 111.251 56.6594C111.898 56.8023 112.568 56.7958 113.212 56.6405C113.855 56.4851 114.455 56.1849 114.965 55.7628C115.475 55.3407 115.882 54.8078 116.155 54.2047C116.428 53.6015 116.56 52.9441 116.54 52.2823C116.52 51.6206 116.35 50.972 116.042 50.3861C115.734 49.8001 115.296 49.2921 114.762 48.9008C114.228 48.5096 113.612 48.2453 112.961 48.1282Z" fill="white"/>
<path id="Vector_80" d="M113.719 50.4927L114.62 51.3544C114.793 51.5212 115.021 51.6207 115.261 51.6351C115.501 51.6494 115.738 51.5777 115.93 51.4327L117.102 50.5532L115.001 47.7402L113.701 49.0435C113.606 49.1389 113.53 49.2525 113.479 49.3776C113.428 49.5027 113.403 49.6367 113.404 49.7718C113.406 49.9069 113.435 50.0403 113.489 50.1641C113.543 50.2879 113.621 50.3997 113.719 50.4927Z" fill="#7F3E3B"/>
<path id="Vector_81" d="M87.3228 34.2414L87.6504 33.0272C87.7053 32.8844 87.8034 32.7623 87.9311 32.678C88.0588 32.5937 88.2097 32.5515 88.3626 32.5572C88.8265 32.5383 89.2896 32.6096 89.7263 32.7673L91.5779 33.4509L91.4889 34.2058C91.4141 34.8539 90.6913 35.3951 89.8723 35.42C89.3225 35.4273 88.7738 35.3688 88.238 35.2455L88.0386 35.2028C87.925 35.1948 87.8146 35.1624 87.7148 35.1078C87.6149 35.0531 87.5281 34.9776 87.4601 34.8863C87.3922 34.795 87.3447 34.6902 87.321 34.5789C87.2973 34.4676 87.298 34.3525 87.3228 34.2414Z" fill="#7F3E3B"/>
</g>
<g id="freepik--character-1--inject-1">
<path id="Vector_82" d="M58.1578 17.4808C59.3435 16.1028 61.1274 12.5243 57.7732 11.157C55.2985 10.1457 50.0464 10.662 47.0305 15.3586C44.9688 16.0708 44.3599 20.657 49.1206 21.622C53.8813 22.5869 58.1578 17.4808 58.1578 17.4808Z" fill="#263238"/>
<path id="Vector_83" d="M68.9144 105.841L63.4736 106.293L64.3959 112.688L68.9429 112.318L68.9144 105.841Z" fill="#FFC3BD"/>
<path id="Vector_84" opacity="0.2" d="M68.9151 105.844L63.4707 106.296L63.9906 109.879L68.9329 109.469L68.9151 105.844Z" fill="black"/>
<path id="Vector_85" d="M58.514 87.0149C56.3775 78.8252 50.8441 69.0759 54.3515 61.1959L69.595 61.1497C69.595 61.1497 69.9724 77.3688 70.0793 85.0066C70.1861 92.9934 69.5202 108.02 69.5202 108.02L63.2854 108.493C63.2854 108.493 59.0125 96.198 58.514 87.0149Z" fill="#FFCA40"/>
<path id="Vector_86" d="M62.9752 108.739L69.7122 108.244C69.7696 108.239 69.8235 108.214 69.864 108.173C69.9044 108.131 69.9289 108.077 69.9329 108.02L70.0754 105.527C70.0777 105.493 70.0724 105.458 70.0598 105.426C70.0472 105.393 70.0276 105.364 70.0024 105.34C69.9772 105.317 69.9471 105.299 69.9141 105.288C69.8812 105.277 69.8463 105.274 69.8119 105.278L62.3343 106.271C62.3003 106.275 62.2676 106.286 62.2384 106.304C62.2093 106.322 62.1845 106.346 62.1657 106.375C62.147 106.403 62.1349 106.436 62.1301 106.47C62.1254 106.503 62.1283 106.538 62.1385 106.57L62.7295 108.572C62.7461 108.623 62.7792 108.667 62.8237 108.697C62.8682 108.728 62.9215 108.742 62.9752 108.739Z" fill="#263238"/>
<path id="Vector_87" opacity="0.2" d="M54.2983 68.9477C54.2393 70.882 54.3178 72.818 54.5333 74.7411C55.2775 77.3155 56.2282 79.8935 57.0828 82.3931C58.2009 75.3144 58.2044 67.0641 54.2983 68.9477Z" fill="black"/>
<path id="Vector_88" d="M48.775 106.24L43.3128 106.293L43.3057 112.738L47.8705 112.702L48.775 106.24Z" fill="#FFC3BD"/>
<path id="Vector_89" d="M42.875 111.748C42.8804 111.712 42.8932 111.678 42.9127 111.647C42.9321 111.616 42.9577 111.59 42.9879 111.57C43.0181 111.55 43.0522 111.536 43.0879 111.53C43.1237 111.524 43.1603 111.525 43.1955 111.534C44.5664 112.079 47.1657 111.662 48.1485 111.474C48.257 111.451 48.3689 111.451 48.4773 111.474C48.5857 111.497 48.6883 111.541 48.7787 111.605C49.5826 112.121 50.4537 112.524 51.3674 112.802C51.5634 113.326 51.6127 113.893 51.5098 114.443H42.3018C42.5616 113.561 42.7532 112.66 42.875 111.748Z" fill="#263238"/>
<path id="Vector_90" d="M63.795 111.748C63.8003 111.712 63.8131 111.678 63.8326 111.647C63.852 111.616 63.8777 111.59 63.9079 111.57C63.938 111.55 63.9721 111.536 64.0079 111.53C64.0436 111.524 64.0802 111.525 64.1154 111.534C65.4863 112.079 68.0857 111.662 69.0684 111.474C69.1769 111.451 69.2888 111.451 69.3972 111.474C69.5056 111.497 69.6082 111.541 69.6987 111.605C70.7455 112.346 73.5371 112.802 73.5371 112.802C73.7332 113.326 73.7813 113.894 73.676 114.443H63.2217C63.4815 113.561 63.6731 112.66 63.795 111.748Z" fill="#263238"/>
<path id="Vector_91" opacity="0.2" d="M48.775 106.243L43.3092 106.293L43.3057 109.903L48.2693 109.861L48.775 106.243Z" fill="black"/>
<path id="Vector_92" d="M42.5437 84.3657C41.8031 76.0941 39.4815 64.9525 42.1164 61.1497H59.9557C59.9557 61.1497 56.3202 77.643 54.8282 85.2772C53.2793 93.2141 48.8248 108.454 48.8248 108.454L42.9176 108.472C42.9176 108.472 40.6779 93.8088 42.5437 84.3657Z" fill="#FFCA40"/>
<path id="Vector_93" opacity="0.2" d="M43.6161 106.781C43.5777 106.78 43.5405 106.767 43.5098 106.744C43.4791 106.721 43.4565 106.689 43.4452 106.652C43.0215 105.228 43.0891 88.8665 44.1573 84.387C44.1573 83.796 44.0327 82.6352 43.8903 81.1646C43.4025 76.1795 42.498 66.9216 43.8476 61.6695C43.8594 61.6223 43.8894 61.5817 43.9312 61.5567C43.9729 61.5316 44.0229 61.5242 44.0701 61.536C44.1173 61.5478 44.1579 61.5779 44.183 61.6196C44.208 61.6614 44.2154 61.7113 44.2036 61.7585C42.8683 66.9537 43.7692 76.176 44.2535 81.1325C44.3995 82.628 44.517 83.8067 44.5241 84.4049C44.5259 84.4202 44.5259 84.4358 44.5241 84.4511C43.4986 88.6884 43.3989 105.175 43.8119 106.553C43.8253 106.598 43.8205 106.646 43.7985 106.687C43.7765 106.728 43.7391 106.759 43.6944 106.773C43.6696 106.783 43.6424 106.786 43.6161 106.781Z" fill="white"/>
<path id="Vector_94" d="M42.5086 108.693H49.1992C49.2527 108.694 49.3049 108.676 49.3462 108.642C49.3874 108.608 49.4149 108.56 49.4235 108.508L49.8651 106.133C49.8714 106.097 49.8697 106.06 49.86 106.024C49.8503 105.989 49.8329 105.957 49.809 105.929C49.7852 105.901 49.7554 105.879 49.722 105.865C49.6886 105.85 49.6523 105.843 49.6158 105.844L42.3305 106.168C42.2998 106.169 42.2696 106.176 42.2417 106.189C42.2138 106.202 42.1889 106.221 42.1686 106.244C42.1482 106.267 42.1328 106.294 42.1233 106.323C42.1138 106.352 42.1104 106.383 42.1133 106.414L42.2629 108.465C42.2682 108.527 42.2963 108.584 42.3417 108.626C42.3871 108.668 42.4466 108.692 42.5086 108.693Z" fill="#263238"/>
<path id="Vector_95" d="M66.0162 32.3398C66.3722 33.7641 66.6998 35.1884 67.0167 36.6127C67.3336 38.037 67.6327 39.4613 67.9105 40.8856L68.3378 43.022L68.7366 45.1584C69.0108 46.5827 69.2529 48.0284 69.5021 49.4669L68.9217 48.1673C68.9993 48.4337 69.1666 48.6652 69.3953 48.8224C69.8511 49.1304 70.3648 49.3424 70.9051 49.4456C71.6253 49.6118 72.3598 49.7084 73.0985 49.734C73.4937 49.7554 73.8997 49.7696 74.3091 49.7625C74.5121 49.7625 74.7186 49.7625 74.9251 49.7625C75.1317 49.7625 75.356 49.7625 75.4984 49.7625L76.0041 49.7981C76.4295 49.8254 76.8345 49.9903 77.1581 50.2679C77.4816 50.5455 77.7062 50.9208 77.7978 51.3371C77.8894 51.7535 77.8432 52.1883 77.6661 52.5761C77.489 52.9639 77.1906 53.2836 76.8159 53.487C76.531 53.6437 76.3281 53.7612 76.086 53.8858C75.8438 54.0104 75.6195 54.1173 75.3738 54.2419C74.8967 54.4484 74.4088 54.6442 73.9032 54.808C73.3901 54.9762 72.8683 55.1164 72.34 55.2282C71.7837 55.3391 71.2213 55.4176 70.6558 55.4632C70.0449 55.5068 69.4313 55.4972 68.822 55.4347C68.1448 55.3779 67.4774 55.2367 66.8351 55.0146C66.1147 54.7745 65.4305 54.4366 64.802 54.0104C64.1391 53.5513 63.5486 52.9956 63.0501 52.3618C62.835 52.0945 62.6752 51.787 62.5801 51.4574L62.4697 51.0621C62.078 49.6592 61.6756 48.2598 61.3053 46.8498L60.7392 44.7418L60.2015 42.6268C59.8454 41.2025 59.4893 39.7995 59.1653 38.3823C58.8413 36.9652 58.5173 35.5338 58.236 34.1095C58.0344 33.0903 58.2385 32.0327 58.8048 31.1617C59.3712 30.2907 60.2551 29.6751 61.2684 29.4459C62.2817 29.2167 63.3445 29.392 64.2305 29.9345C65.1166 30.4769 65.7559 31.3437 66.0126 32.3505L66.0162 32.3398Z" fill="#FFC3BD"/>
<path id="Vector_96" d="M75.249 50.1149L75.3238 52.4152C76.2532 54.6477 78.9166 52.9528 78.9166 52.9528L80.526 52.6573C80.8063 52.5859 81.0522 52.4177 81.2203 52.1825C81.3885 51.9472 81.4679 51.6601 81.4447 51.3719L81.402 49.7624C81.4128 49.4302 81.2933 49.1069 81.0692 48.8614C80.845 48.616 80.5339 48.4678 80.202 48.4485L78.7777 48.477C78.3621 48.4841 77.9547 48.5942 77.592 48.7974L75.249 50.1149Z" fill="#FFC3BD"/>
<path id="Vector_97" d="M63.2884 28.3731C66.5643 30.0965 68.7043 36.1782 68.7043 36.1782C68.0136 39.0268 65.2291 44.2219 62.6511 44.1899C62.6511 44.1899 58.866 39.3081 58.4565 35.7758C57.958 31.5065 56.6655 24.8907 63.2884 28.3731Z" fill="#263238"/>
<path id="Vector_98" d="M60.2626 27.362C55.207 26.8813 50.1137 26.9625 45.076 27.6041C42.1633 28.0136 40.091 29.826 40.447 35.7938C41.1592 47.9003 40.0554 57.3363 41.5936 61.6875C41.5936 61.6875 63.9978 68.0968 70.3857 61.9546C71.9382 47.3876 66.7111 35.2953 64.3325 30.264C63.96 29.4718 63.39 28.7887 62.6772 28.2805C61.9644 27.7722 61.1329 27.4559 60.2626 27.362Z" fill="#263238"/>
<path id="Vector_99" d="M58.5782 28.6864C57.9978 28.1167 57.3889 28.4478 57.1076 27.5897C56.9836 26.916 57.0969 26.2201 57.4281 25.6206L50.5167 21.8889C50.652 24.4313 50.7553 26.4395 49.6265 27.4508C49.2989 29.3451 52.8312 31.2359 57.5349 31.2643C60.5295 31.2822 59.415 29.5053 58.5782 28.6864Z" fill="#FFC3BD"/>
<path id="Vector_100" opacity="0.2" d="M57.3242 25.8342L51.8691 24.4705C53.2471 26.639 55.729 27.8247 57.0643 27.3012C57.0261 26.7982 57.1155 26.2936 57.3242 25.8342Z" fill="black"/>
<path id="Vector_101" d="M55.0668 13.3931C51.4562 12.592 48.337 15.5901 49.0349 18.8589C49.7328 22.1276 50.2848 24.3353 52.5458 25.4463C57.0395 27.661 59.2329 25.5246 59.5996 22.1098C59.9308 19.0334 58.7308 14.2014 55.0668 13.3931Z" fill="#FFC3BD"/>
<path id="Vector_102" opacity="0.2" d="M54.359 19.197C53.9345 19.0908 53.4851 19.156 53.1084 19.3787C53.5332 19.4011 53.9582 19.3394 54.359 19.197Z" fill="black"/>
<path id="Vector_103" opacity="0.2" d="M54.3843 19.4998C54.1846 19.4904 53.9853 19.5251 53.8006 19.6015C53.6159 19.6779 53.4502 19.794 53.3154 19.9416C53.6996 19.8737 54.0643 19.7229 54.3843 19.4998Z" fill="black"/>
<path id="Vector_104" d="M49.4905 21.6219C51.5094 22.0741 52.3391 21.0629 52.3391 19.9306C52.3391 18.727 51.2032 16.6938 49.9569 16.32C50.402 13.6494 57.7621 17.3882 57.0606 13.6886C57.0606 13.6886 56.8612 13.0548 54.9598 12.6987C53.0583 12.3426 47.9772 13.4892 48.3332 17.2885C48.6893 21.0878 49.4905 21.6219 49.4905 21.6219Z" fill="#263238"/>
<path id="Vector_105" d="M46.9199 15.5474C47.4141 14.5558 47.5536 13.4248 47.3152 12.3428C47.3152 12.3428 49.5299 13.8062 46.9199 15.5474Z" fill="#263238"/>
<path id="Vector_106" d="M56.2061 22.6367C56.3571 22.6254 56.5071 22.6027 56.6548 22.5691C56.6662 22.5666 56.6771 22.5618 56.6867 22.555C56.6964 22.5483 56.7046 22.5397 56.7109 22.5298C56.7171 22.5198 56.7214 22.5088 56.7234 22.4972C56.7254 22.4856 56.725 22.4737 56.7224 22.4623C56.7204 22.4505 56.7159 22.4394 56.7093 22.4295C56.7026 22.4196 56.694 22.4112 56.684 22.4048C56.6739 22.3984 56.6626 22.3942 56.6509 22.3925C56.6391 22.3907 56.6271 22.3914 56.6156 22.3946C56.2458 22.4848 55.8601 22.4874 55.4892 22.402C55.1182 22.3167 54.7724 22.1459 54.4792 21.9032C54.4709 21.8946 54.4609 21.8877 54.4499 21.8831C54.4389 21.8784 54.427 21.876 54.4151 21.876C54.4031 21.876 54.3913 21.8784 54.3802 21.8831C54.3692 21.8877 54.3593 21.8946 54.351 21.9032C54.3344 21.9205 54.3252 21.9434 54.3252 21.9673C54.3252 21.9912 54.3344 22.0142 54.351 22.0314C54.6047 22.2502 54.8993 22.4164 55.2178 22.5203C55.5363 22.6242 55.8722 22.6638 56.2061 22.6367Z" fill="#263238"/>
<path id="Vector_107" d="M48.2128 21.7787C48.4439 22.0919 48.7346 22.3564 49.0683 22.5568C49.4019 22.7573 49.7719 22.8897 50.157 22.9466C51.1932 23.0891 51.5813 22.1312 51.1825 21.2268C50.8264 20.4114 49.8579 19.3574 48.8751 19.628C47.8924 19.8986 47.6502 20.9989 48.2128 21.7787Z" fill="#FFC3BD"/>
<path id="Vector_108" d="M54.946 19.233C54.9887 19.5216 55.174 19.7353 55.3628 19.7068C55.5517 19.6783 55.6728 19.4182 55.6301 19.1296C55.5873 18.841 55.4056 18.6308 55.2168 18.6593C55.0279 18.6878 54.921 18.9301 54.946 19.233Z" fill="#263238"/>
<path id="Vector_109" d="M58.3394 18.7774C58.3822 19.0695 58.5674 19.2797 58.7563 19.2512C58.9451 19.2227 59.0662 18.9662 59.0235 18.6776C58.9807 18.389 58.799 18.1752 58.6102 18.2037C58.4213 18.2322 58.3002 18.4888 58.3394 18.7774Z" fill="#263238"/>
<path id="Vector_110" d="M57.0576 19.158L57.2214 21.6006C57.2214 21.6006 58.0226 21.7395 58.457 21.2766C58.1812 20.4614 57.6991 19.7316 57.0576 19.158Z" fill="#ED847E"/>
<path id="Vector_111" d="M53.8276 18.5748C53.7985 18.5827 53.7677 18.5826 53.7386 18.5744C53.7095 18.5663 53.6831 18.5504 53.6623 18.5285C53.6414 18.5066 53.6269 18.4794 53.6203 18.4499C53.6137 18.4205 53.6151 18.3897 53.6246 18.361C53.6923 18.0961 53.8219 17.8511 54.0028 17.6461C54.1837 17.4411 54.4106 17.2819 54.6649 17.1816C54.7079 17.1682 54.7545 17.1722 54.7945 17.1929C54.8346 17.2136 54.8648 17.2492 54.8787 17.2921C54.8923 17.3356 54.8883 17.3826 54.8677 17.4232C54.8471 17.4638 54.8114 17.4948 54.7683 17.5094C54.5674 17.5913 54.3889 17.7196 54.2471 17.8837C54.1053 18.0477 54.0043 18.2431 53.9523 18.4536C53.9443 18.4831 53.9285 18.5099 53.9065 18.5312C53.8846 18.5525 53.8574 18.5676 53.8276 18.5748Z" fill="#263238"/>
<path id="Vector_112" d="M59.4545 17.4814C59.4264 17.484 59.398 17.4791 59.3724 17.4672C59.3467 17.4553 59.3247 17.4368 59.3085 17.4137C59.1865 17.2367 59.0238 17.0916 58.834 16.9905C58.6443 16.8895 58.4331 16.8354 58.2182 16.8329C58.1709 16.8329 58.1256 16.8141 58.0922 16.7807C58.0588 16.7473 58.04 16.702 58.04 16.6548C58.04 16.6075 58.0588 16.5622 58.0922 16.5288C58.1256 16.4954 58.1709 16.4766 58.2182 16.4766C58.4896 16.4744 58.7575 16.5382 58.9989 16.6623C59.2403 16.7864 59.448 16.9672 59.6042 17.1892C59.6173 17.2075 59.6267 17.2281 59.6318 17.25C59.6369 17.2719 59.6377 17.2945 59.634 17.3167C59.6304 17.3389 59.6224 17.3601 59.6106 17.3792C59.5987 17.3983 59.5832 17.4148 59.565 17.4279C59.5512 17.444 59.5343 17.457 59.5153 17.4662C59.4963 17.4754 59.4756 17.4805 59.4545 17.4814Z" fill="#263238"/>
<path id="Vector_113" d="M80.2025 40.7681C79.457 40.8206 78.738 41.0661 78.1159 41.4802L77.4714 33.2905C77.4187 32.6535 77.1163 32.0631 76.63 31.6482C76.1437 31.2333 75.5131 31.0275 74.8757 31.0758L50.9724 32.9594C50.3357 33.013 49.7459 33.3157 49.3312 33.8018C48.9165 34.2879 48.7103 34.918 48.7576 35.5552L50.6448 59.4584C50.6957 60.0962 50.9977 60.6877 51.4844 61.103C51.9711 61.5183 52.6028 61.7234 53.2406 61.6732L77.1403 59.786C77.778 59.7342 78.3693 59.4321 78.7849 58.9457C79.2006 58.4593 79.4068 57.8282 79.3586 57.1902L78.7106 49.0183C79.3892 49.3364 80.1392 49.4714 80.8862 49.41C81.9591 49.2294 82.9254 48.6535 83.5946 47.7957C84.2638 46.9379 84.5874 45.8606 84.5016 44.776C84.4158 43.6914 83.9268 42.6784 83.1311 41.9365C82.3353 41.1946 81.2905 40.7777 80.2025 40.7681Z" fill="#FFCA40"/>
<path id="Vector_114" d="M45.542 37.4993L45.1859 38.1545L44.7764 38.888C44.5129 39.3865 44.2423 39.885 43.9966 40.3906C43.5029 41.3758 43.0608 42.3861 42.672 43.4173C42.4833 43.9158 42.3159 44.4107 42.1913 44.8985C42.0491 45.3656 41.9373 45.8413 41.8566 46.3228C41.7072 47.0973 41.6819 47.8905 41.7818 48.6729L40.9629 47.2486C41.3038 47.7163 41.7104 48.1324 42.17 48.4842C42.7741 48.9663 43.408 49.4099 44.0678 49.8123C44.7551 50.2539 45.4921 50.6776 46.2328 51.1013L47.3651 51.7316C47.7212 51.9452 48.1484 52.1589 48.4867 52.3654L48.6576 52.4687C49.0356 52.6978 49.3278 53.0448 49.4892 53.4562C49.6506 53.8677 49.6723 54.3209 49.5509 54.7459C49.4294 55.1709 49.1717 55.5442 48.8172 55.8083C48.4628 56.0724 48.0314 56.2126 47.5894 56.2074C47.0482 56.2074 46.5853 56.1718 46.0868 56.1327C45.5883 56.0935 45.1147 56.033 44.6304 55.9546C43.6462 55.8068 42.6722 55.5975 41.7142 55.3279C40.7002 55.0438 39.7117 54.6757 38.7588 54.2277C37.6323 53.7088 36.597 53.0114 35.693 52.1624C35.3677 51.8522 35.1232 51.4672 34.9808 51.0408L34.8811 50.7346C34.3236 49.0434 34.1152 47.2566 34.2687 45.4825C34.3896 43.9371 34.6859 42.4104 35.1517 40.9319C35.5855 39.5426 36.1235 38.188 36.7612 36.8797C37.071 36.2388 37.3879 35.605 37.744 34.989C37.9184 34.6792 38.1 34.3694 38.2852 34.0632L38.5772 33.6003L38.7303 33.3653L38.9154 33.0911C39.4875 32.2255 40.3746 31.6172 41.3882 31.3955C42.4018 31.1738 43.4618 31.3562 44.343 31.9039C45.2242 32.4517 45.857 33.3215 46.1068 34.3285C46.3566 35.3355 46.2038 36.4003 45.6808 37.2963L45.542 37.4993Z" fill="#FFC3BD"/>
<path id="Vector_115" d="M42.7615 28.3732C36.8578 31.528 34.6572 38.5747 34.6572 38.5747C35.8251 40.8002 42.8683 43.2037 45.5175 42.5485C45.5175 42.5485 48.0563 37.9196 48.5797 33.782C49.064 29.9471 46.219 26.5252 42.7615 28.3732Z" fill="#263238"/>
<path id="Vector_116" d="M46.8916 52.7572L47.0127 55.0574C47.9883 57.2722 50.6161 55.5239 50.6161 55.5239L52.222 55.1963C52.5006 55.1195 52.7429 54.9464 52.9059 54.7078C53.0689 54.4692 53.142 54.1805 53.1122 53.8931L53.041 52.2872C53.0498 51.9529 52.9272 51.6284 52.6995 51.3835C52.4719 51.1385 52.1573 50.9925 51.8232 50.9768L50.3989 51.0338C49.9826 51.0528 49.5775 51.1752 49.2203 51.3899L46.8916 52.7572Z" fill="#FFC3BD"/>
</g>
</g>
</svg>
